<?xml version="1.0" encoding="UTF-8"?>
<svg id="Layer_1" xmlns="http://www.w3.org/2000/svg" viewBox="0 0 345.41 109.94">
  <defs>
    <style>
      .cls-1 {
        fill: #13332a;
      }

      .cls-2 {
        fill: #fff;
      }

      .cls-3 {
        fill: #40665b;
      }
    </style>
  </defs>
  <path d="M279,9.85c-.45.05-1,.1-2.02.21.37,2.59.73,5.09,1.06,7.59.07.49.03,1,.03,1.5,0,6.28.04,12.55-.03,18.83-.01,1.45.4,1.99,1.91,1.98,3.76-.03,7.53.04,11.29.2,3.53.15,7.05.44,10.57.71,2.65.2,5.29.47,7.93.72,2.59.25,5.33.1,7.74.9,3.42,1.14,6.95,1.12,10.39,1.79,2.21.43,4.28,1.51,6.46,2.1,1.79.48,1.87,1.66,1.69,3.23-1.87.82-3.96,1.43-5.7,2.57-1.95,1.27-3.99,1.54-6.17,1.89-2.74.44-5.37,1.46-8.08,2.13-1.5.37-3.06.47-4.56.82-1.69.39-3.35.93-5.36,1.51,2.85.68,5.41,1.08,7.82,1.93,2.4.85,5.1.62,7.29,2.32.87.68,2.28.66,3.44.97,2.89.78,5.86,1.34,8.64,2.41,2.64,1.01,5.08,2.55,7.61,3.87.68.35,1.45.63,1.99,1.15.84.8,1.52,1.78,2.48,2.92-1.8.91-3.48,1.53-4.9,2.52-2.07,1.43-4.4,1.48-6.68,2.06-2.99.77-5.87.18-8.77.56-2.23.29-4.46,0-6.69,0-2.45,0-4.9,0-7.34,0-2.45,0-4.9,0-7.34,0-2.45,0-4.9,0-7.34,0-2.39,0-4.77,0-7.16,0-2.45,0-4.9,0-7.34,0s-4.9,0-7.34,0c-2.45,0-4.9,0-7.34,0-2.45,0-4.91-.19-7.34.05-2.2.22-4.35.9-6.53,1.37-.24.05-.49.07-.74.07-5.21,0-10.41,0-16.19,0,.34-1.58.71-2.97.92-4.39.14-.98.19-2.01.05-2.99-.42-3.04-1.23-6.06-1.36-9.1-.13-3.06.38-6.15.62-9.51-.66,0-1.32,0-1.98,0-5.96,0-11.93.05-17.89-.03-1.72-.03-3.42-.5-5.14-.68-.86-.09-2.01-.3-2.56.14-.7.56-.81.28-1.34-.06-.4-.26-1.09-.11-1.66-.11-23.67,0-47.33,0-71,0-8.64,1.58-17.43-.12-26.02.94-5.02.62-9.99.02-15.08.72.71,1.19,1.27,2.4,0,3.6-.19.18-.19.8-.04,1.09,1.45,2.82.4,5.82.73,8.72.13,1.15.32,2.3.5,3.52-1.18.55-2.56,1.19-4.11,1.91.45.47.67.71.96,1.01-2.21,1.79-4.35,3.48-7.49,2.97-10.78-1.74-21.63-.59-32.44-.59-3.15,0-6.53,0-9.62.72-2.34.54-4.59.39-6.87.61-2.41.23-4.81.48-7.21.76-1.78.21-3.78.07-5.27.86-1.56.83-3.67-.32-4.79,1.6-.13.22-.82.11-1.25.16-2.03.26-4.14.25-6.05.87-2.76.89-5.48,1.59-8.51,1.33-.32-2.45-.17-4.61,2.41-5.82.25-.12.5-.35.64-.59,1.61-2.92,4.8-3.73,7.31-5.41,2.23-1.48,4.87-2.33,7.24-3.62,1-.55,1.68-1.69,2.69-2.24,1.4-.77,2.98-1.22,4.47-1.83,1.28-.52,2.55-1.07,3.83-1.61-.04-.24-.07-.49-.11-.73-3.22-.6-6.55-.89-9.63-1.9-3.5-1.14-6.97-.46-10.44-.63-3.5-.17-7.01-.04-10.86-.04,0-1.07-.02-2.05,0-3.03.04-1.28.26-2.34,1.87-2.68,1.39-.29,2.95-.65,3.98-1.52,1.45-1.22,3.22-1.36,4.78-2.11,1.03-.5,2.15-.86,3.25-1.17,2.02-.57,4.33-.63,6.05-1.67,3.01-1.81,6.35-2.27,9.56-3.28,2.19-.69,4.29-1.67,6.44-2.5.82-.32,1.66-.64,2.52-.81,1.72-.33,3.47-.54,5.21-.8,2.23-.34,4.45-.7,6.88-1.08,0-.46,0-1.07,0-1.68-.02-7.41,0-14.81-.09-22.21-.02-1.73-.58-3.45-.63-5.19-.08-2.48,1.61-3.91,4.01-4.15,3.03-.3,6.03-.93,9.05-1.41.25-.04.5-.04.75-.05,4.38-.27,8.92.08,13.1-1,3.85-.99,7.61-.57,11.38-1.01,2-.23,4.01-.5,6.02-.62,5.24-.31,10.48-.53,15.71-.82,3.88-.21,7.76-.53,11.64-.69,7.94-.32,15.87-.59,23.81-.82,3.32-.1,6.65-.05,9.97-.07,3.13-.01,6.25-.04,9.38-.03,12.22.05,24.44.12,36.66.17,3.91.02,7.83-.03,11.74.04,10.79.21,21.58.43,32.36.74,5.09.14,10.18.36,15.26.78,3.04.25,6.07.79,9.03,1.5,1.6.38,3.07,1.35,4.55,2.15,1.09.59,2.67.28,3.25,1.8.11.3.4.54.56.83.3.55.57,1.11.93,1.83ZM55.24,10.66c.37,1.4.81,2.49.93,3.62.42,3.77-.1,7.53.61,11.38.93,5.04-.16,10.3.79,15.49.5,2.71-.49,5.66-.58,8.5-.06,1.83-.26,3.37-2.32,4.2,1.1.14,2.1.11,3.01-.21,1.05-.37,1.95-1.28,3-1.47,2.36-.43,4.77-.67,7.17-.8,5.93-.32,11.86-.54,17.8-.77,6.25-.25,12.5-.47,18.75-.69,7.72-.28,15.44-.59,23.16-.81,10.21-.29,20.41-.77,30.62-.69,19.22.15,38.43-.56,57.65.47,13.78.74,27.62.58,41.43.83,2.56.05,5.28-.46,7.15,2.08-.54.42-1.14.98-1.82,1.41-1.68,1.07-3.46,1.82-5.53,1.54-.25-.03-.53.28-.81.3-1.35.1-2.71.17-4.07.21-.26,0-.53-.26-.78-.24-1.49.12-3.38.93-4.39.31-1.99-1.23-3.19-.03-4.84.45.3,3.51.55,6.92.91,10.31.06.58.53,1.15.91,1.65.09.11.67,0,.89-.17.93-.72,1.73-1.64,2.73-2.23,2.33-1.38,4.8-2.54,7.13-3.92,2.96-1.75,6.4-2.36,9.32-4.32,1.67-1.12,3.97-1.31,6.1-1.96.32-3.02.64-6.15.97-9.23-3.03-.71-3.37-1.62-1.85-3.94,1.16-1.77,1.86-3.57,1.72-5.85-.23-3.81-.07-7.65.09-11.48.19-4.61.56-9.2.84-13.65-1.81-.68-3.18-1.31-4.61-1.69-1.2-.32-2.33-.44-3.52-1.14-1.39-.81-3.34-.76-5.06-.87-3.91-.24-7.82.19-11.75-.68-2.52-.55-5.25-.16-7.89-.06-.76.03-1.53.45-2.24.82-1.85.95-3.14,3.16-5.91,1.91-.84-.38-1.65-1-2.49-1.18-2.05-.45-4.16-.63-6.26-.82-4.59-.41-9.17.11-13.83-.6-6.63-1.01-13.47.52-20.19-.85-2.11-.43-4.38-.07-6.58-.07-2.2,0-4.39,0-6.59,0s-4.52,0-6.78,0c-2.2,0-4.4-.07-6.59.02-1.98.08-3.92-.26-5.94-.11-4.25.31-8.54-.05-12.8.12-8.81.35-17.61-.66-26.44.61-5.71.83-11.57.62-17.37.86-6.3.26-12.59.5-18.89.77-.33.01-.67.17-.98.33-.47.23-.89.71-1.37.76-3.77.41-7.54-.32-11.39.65-3.43.87-7.15.61-11.23.87ZM329.61,71.89c-1.57-.36-2.96-.65-4.33-1-1.02-.26-2.01-.6-3.02-.9-1.49-.44-2.98-.88-4.46-1.32-.44-.13-.91-.21-1.3-.44-1.17-.7-2.52-.58-3.82-1.25-2.62-1.35-5.78-1.66-8.71-2.42-3.13-.81-6.26-1.65-9.3-2.45,0-1.29-.08-2.05.02-2.79.23-1.68,1.18-3.11,2.65-3.73,3.47-1.45,7.27-1.75,10.79-3.31,2.69-1.19,5.93-1.13,8.91-1.71.53-.1.98-.59,1.68-1.03-3-.45-5.44-.88-7.89-1.18-2.73-.34-5.67.78-8.18-1.15-6.48-.25-12.96-.5-19.44-.75-.44-.02-.88.01-1.32,0-.31-.01-.63-.03-.92-.11-.9-.25-1.79-.53-2.78-.83-.48,3.32-.89,6.18-1.28,8.86.39.4,1.16.93,1.08,1.18-.32,1.01-.7,2.15-1.44,2.82-.75.67-2.48,1.45-2.86,1.13-1.97-1.71-3.47.64-5.24.34-.73-.12-1.68.41-2.37.87-1.93,1.28-4.17,1.96-6.22,2.9-3.55,1.63-6.97,3.26-9.87,5.91-.28.26-.61.56-.97.64-1.94.48-3.44,2.68-3.13,5.17,2.11-.33,4.21-.78,6.33-.97,3.62-.33,7.25-.59,10.89-.74,7.5-.31,15-.64,22.51-.75,8.91-.13,17.82-.05,26.73-.03,5.83.02,11.66.09,17.47.14-.03-.19-.12-.66-.2-1.09ZM50.9,44.69c-5.74,2.25-11.41,1.96-16.67,4.06-5.06,2.01-10.5,3.05-15.78,4.51.02.3.04.6.06.9,1.28.19,2.56.42,3.85.57,2.77.32,5.63.27,8.28,1,2.26.62,4.59,1.08,6.82,2.18,2.04,1,4.02,1.79,5.52,3.64-1.22,1.71-3.1,2.3-4.95,3.01-1.88.72-3.7,1.58-5.5,2.48-1.43.72-2.75,1.66-4.18,2.37-1.8.89-3.77,1.46-5.5,2.47-2.42,1.42-4.69,3.1-7.02,4.68-.37.25-.69.58-1.03.87.46.08,1.22.38,1.33.22,1.07-1.48,2.66-.85,4.02-1.12,3.63-.72,7.22-1.65,10.88-2.13,3.85-.5,7.76-.58,11.64-.84.31-.02.66.06.94-.05,3.95-1.62,8.43.42,12.3-1.78,6.53,0,13.05-.02,19.58,0,1.06,0,2.4-.19,3.11.36,1.57,1.2,3.09.56,5.09.73-.5-.63-.65-.94-.89-1.1-1.83-1.16-3.68-2.28-5.51-3.42-1.18-.73-2.26-1.7-3.53-2.19-3.28-1.24-6.62-2.27-9.67-4.1-1.49-.9-3.39-1.21-5.14-1.57-3.2-.67-6.43-1.18-9.67-1.76-.24-.48-.38-1.19-.81-1.57-.95-.84-.7-1.47.03-2.24.51-.53,1.21-1.12,1.31-1.77.45-2.64.7-5.31,1.07-8.39ZM88.01,66.28c.49-3.79.93-7.23,1.38-10.79-.5,0-1.19-.03-1.87,0-4.29.24-8.57.54-12.85.73-2.13.1-4.27,0-6.4.02-.64,0-1.27.09-1.91.14,7.35,3,14.85,5.31,21.65,9.88ZM89.62,73.83c-.41-1.3-.65-2.08-.86-2.75-.88.32-1.64.61-2.41.89-.06.18-.11.36-.17.53,1.07.41,2.14.82,3.44,1.32Z"/>
  <path class="cls-3" d="M271.14,45.92c-3.03-.71-3.37-1.62-1.85-3.94,1.16-1.77,1.86-3.57,1.72-5.85-.23-3.81-.07-7.65.09-11.48.19-4.61.56-9.2.84-13.65-1.81-.68-3.18-1.31-4.61-1.69-1.2-.32-2.33-.44-3.52-1.14-1.39-.81-3.34-.76-5.06-.87-3.91-.24-7.82.19-11.75-.68-2.52-.55-5.25-.16-7.89-.06-.76.03-1.53.45-2.24.82-1.85.95-3.14,3.16-5.91,1.91-.84-.38-1.65-1-2.49-1.18-2.05-.45-4.16-.63-6.26-.82-4.59-.41-9.17.11-13.83-.6-6.63-1.01-13.47.52-20.19-.85-2.11-.43-4.38-.07-6.58-.07-2.2,0-4.39,0-6.59,0h-6.78c-2.2,0-4.4-.07-6.59.02-1.98.08-3.92-.26-5.94-.11-4.25.31-8.54-.05-12.8.12-8.81.35-17.61-.66-26.44.61-5.71.83-11.57.62-17.37.86-6.3.26-12.59.5-18.89.77-.33.01-.67.17-.98.33-.47.23-.89.71-1.37.76-3.77.41-7.54-.32-11.39.65-3.43.87-7.15.61-11.23.87.37,1.4.81,2.49.93,3.62.42,3.77-.1,7.53.61,11.38.93,5.04-.16,10.3.79,15.49.5,2.71-.49,5.66-.58,8.5-.06,1.83-.26,3.37-2.32,4.2,1.1.14,2.1.11,3.01-.21,1.05-.37,1.95-1.28,3-1.47,2.36-.43,4.77-.67,7.17-.8,5.93-.32,11.86-.54,17.8-.77,6.25-.25,12.5-.47,18.75-.69,7.72-.28,15.44-.59,23.16-.81,10.21-.29,20.41-.77,30.62-.69,19.22.15,38.43-.56,57.65.47,13.78.74,27.62.58,41.43.83,2.56.05,5.28-.46,7.15,2.08-.5.39-1.06.89-1.67,1.3,2.6.11,5.14.4,7.54,1.1.29-2.73.58-5.52.87-8.29Z"/>
  <path class="cls-1" d="M262.73,53.11c-.05.03-.1.08-.15.11-1.68,1.07-3.46,1.82-5.53,1.54-.25-.03-.53.28-.81.3-1.35.1-2.71.17-4.07.21-.26,0-.53-.26-.78-.24-1.49.12-3.38.93-4.39.31-1.99-1.23-3.19-.03-4.84.45.3,3.51.55,6.92.91,10.31.06.58.53,1.15.91,1.65.09.11.67,0,.89-.17.93-.72,1.73-1.64,2.73-2.23,2.33-1.38,4.8-2.54,7.13-3.92,2.96-1.75,6.4-2.36,9.32-4.32,1.67-1.12,3.97-1.31,6.1-1.96.03-.31.07-.63.1-.94-2.4-.7-4.94-.99-7.54-1.1Z"/>
  <path class="cls-3" d="M329.61,71.89c.08.44.17.91.2,1.09-5.81-.05-11.64-.13-17.47-.14-8.91-.02-17.82-.1-26.73.03-7.5.11-15.01.44-22.51.75-3.63.15-7.27.41-10.89.74-2.12.2-4.22.64-6.33.97-.31-2.49,1.18-4.69,3.13-5.17.36-.09.68-.38.97-.64,2.89-2.65,6.32-4.28,9.87-5.91,2.05-.94,4.29-1.62,6.22-2.9.7-.46,1.65-.99,2.37-.87,1.77.3,3.27-2.05,5.24-.34.38.33,2.11-.45,2.86-1.13.74-.67,1.13-1.81,1.44-2.82.08-.25-.69-.78-1.08-1.18.39-2.69.8-5.55,1.28-8.86.98.3,1.87.58,2.78.83.29.08.61.1.92.11.44.02.88,0,1.32,0,6.48.25,12.96.5,19.44.75,2.51,1.93,5.45.81,8.18,1.15,2.45.3,4.89.73,7.89,1.18-.7.44-1.15.93-1.68,1.03-2.98.58-6.22.52-8.91,1.71-3.52,1.56-7.33,1.86-10.79,3.31-1.47.61-2.42,2.04-2.65,3.73-.1.74-.02,1.5-.02,2.79,3.05.8,6.17,1.64,9.3,2.45,2.93.76,6.09,1.07,8.71,2.42,1.3.67,2.66.56,3.82,1.25.38.23.86.31,1.3.44,1.49.44,2.98.88,4.46,1.32,1.01.3,2,.64,3.02.9,1.37.35,2.77.64,4.33,1Z"/>
  <path class="cls-3" d="M50.9,44.69c-.38,3.09-.63,5.75-1.07,8.39-.11.65-.8,1.23-1.31,1.77-.74.77-.99,1.4-.03,2.24.43.38.57,1.09.81,1.57,3.23.58,6.46,1.09,9.67,1.76,1.76.37,3.65.68,5.14,1.57,3.06,1.83,6.39,2.86,9.67,4.1,1.27.48,2.36,1.45,3.53,2.19,1.84,1.14,3.69,2.26,5.51,3.42.25.16.39.47.89,1.1-2-.17-3.52.47-5.09-.73-.71-.55-2.05-.35-3.11-.36-6.53-.02-13.05,0-19.58,0-3.86,2.2-8.35.16-12.3,1.78-.27.11-.62.03-.94.05-3.88.26-7.79.34-11.64.84-3.66.48-7.25,1.41-10.88,2.13-1.36.27-2.95-.36-4.02,1.12-.12.16-.87-.13-1.33-.22.34-.29.66-.62,1.03-.87,2.33-1.58,4.6-3.26,7.02-4.68,1.72-1.01,3.69-1.59,5.5-2.47,1.44-.7,2.75-1.65,4.18-2.37,1.8-.9,3.63-1.76,5.5-2.48,1.85-.71,3.73-1.3,4.95-3.01-1.5-1.85-3.48-2.64-5.52-3.64-2.24-1.1-4.56-1.56-6.82-2.18-2.65-.73-5.52-.68-8.28-1-1.29-.15-2.57-.38-3.85-.57-.02-.3-.04-.6-.06-.9,5.28-1.47,10.72-2.5,15.78-4.51,5.26-2.09,10.94-1.8,16.67-4.06Z"/>
  <path class="cls-1" d="M88.01,66.28c-6.79-4.57-14.29-6.88-21.65-9.88.64-.05,1.27-.14,1.91-.14,2.13-.02,4.27.07,6.4-.02,4.29-.19,8.57-.49,12.85-.73.68-.04,1.37,0,1.87,0-.46,3.56-.9,7-1.38,10.79Z"/>
  <path class="cls-1" d="M89.62,73.83c-1.3-.5-2.37-.91-3.44-1.32.06-.18.11-.36.17-.53.77-.28,1.53-.57,2.41-.89.21.66.45,1.45.86,2.75Z"/>
  <g>
    <path class="cls-2" d="M81.59,30.35l3.4.8c-.19.88-.52,1.62-.98,2.22-.46.6-1.05,1.07-1.75,1.39-.71.33-1.62.51-2.73.56-1.35.05-2.46-.08-3.33-.41-.87-.33-1.63-.93-2.29-1.82-.66-.89-1.02-2.04-1.07-3.46-.08-1.89.41-3.37,1.46-4.43,1.05-1.06,2.58-1.63,4.57-1.71,1.56-.06,2.8.18,3.72.73.92.55,1.62,1.42,2.1,2.61l-3.36.83c-.13-.34-.27-.59-.4-.75-.23-.26-.5-.46-.81-.59-.32-.13-.67-.19-1.05-.18-.87.04-1.52.38-1.96,1.05-.33.49-.48,1.25-.43,2.27.05,1.27.29,2.13.73,2.58.44.45,1.03.67,1.79.64.73-.03,1.28-.24,1.64-.64.36-.4.61-.96.75-1.69Z"/>
    <path class="cls-2" d="M86.56,29.13c-.06-1.87.46-3.34,1.56-4.42s2.65-1.64,4.67-1.71c2.07-.06,3.67.4,4.82,1.39s1.75,2.41,1.81,4.25c.04,1.34-.17,2.44-.63,3.31-.46.87-1.15,1.56-2.06,2.06s-2.05.78-3.43.82c-1.4.04-2.57-.13-3.5-.51-.93-.38-1.69-1.01-2.29-1.88-.6-.87-.92-1.98-.96-3.32ZM90.39,29.03c.03,1.16.29,1.98.77,2.47.48.49,1.12.72,1.92.7.82-.02,1.45-.29,1.89-.8.44-.51.64-1.4.6-2.68-.03-1.08-.29-1.86-.78-2.34-.49-.48-1.13-.71-1.94-.69-.77.02-1.39.29-1.84.81-.45.52-.66,1.36-.63,2.53Z"/>
    <path class="cls-2" d="M101.56,22.94l5.05-.12,2.11,6.92,1.77-7.01,5.04-.12.26,11.45-3.14.07-.2-8.73-2.22,8.79-2.85.06-2.62-8.68.2,8.73-3.14.07-.26-11.45Z"/>
    <path class="cls-2" d="M118.23,22.58l10.28-.18.04,2.45-6.44.11.03,1.82,5.97-.1.04,2.34-5.97.1.04,2.26,6.62-.12.05,2.59-10.47.18-.2-11.45Z"/>
    <path class="cls-2" d="M137.08,22.27l7.19-.08c1.2-.01,2.12.25,2.77.79.65.54.98,1.21.98,2.02,0,.68-.21,1.26-.67,1.75-.3.33-.74.59-1.33.78.89.19,1.56.52,1.98,1,.43.48.64,1.08.65,1.81,0,.59-.14,1.13-.43,1.61-.29.48-.7.86-1.22,1.14-.32.18-.8.31-1.45.39-.86.11-1.44.17-1.72.18l-6.63.08-.13-11.45ZM141,26.72l1.67-.02c.6,0,1.01-.11,1.25-.3.23-.19.35-.47.34-.83,0-.33-.12-.59-.36-.78-.24-.19-.65-.27-1.23-.27l-1.69.02.03,2.17ZM141.05,31.22l1.96-.02c.66,0,1.13-.12,1.39-.34.27-.22.4-.51.4-.88,0-.34-.14-.61-.41-.81-.27-.2-.74-.3-1.41-.29l-1.95.02.03,2.32Z"/>
    <path class="cls-2" d="M158.24,31.63l-4.36.03-.59,1.9-3.92.03,4.58-11.49,4.19-.03,4.75,11.42-4.02.03-.64-1.89ZM157.42,29.16l-1.4-4.11-1.33,4.13,2.73-.02Z"/>
    <path class="cls-2" d="M172.27,28.76l3.37.92c-.22.87-.58,1.6-1.06,2.18-.48.58-1.08,1.03-1.8,1.33-.72.3-1.63.45-2.75.46-1.35,0-2.45-.17-3.31-.53-.86-.36-1.6-.99-2.22-1.9-.62-.91-.94-2.07-.95-3.49,0-1.89.53-3.35,1.62-4.37,1.09-1.02,2.63-1.54,4.63-1.54,1.56,0,2.8.28,3.69.86.9.58,1.57,1.47,2.01,2.68l-3.39.71c-.12-.35-.25-.6-.38-.76-.22-.27-.48-.48-.79-.62-.31-.14-.66-.22-1.04-.21-.87,0-1.53.33-2,.98-.35.48-.52,1.23-.52,2.26,0,1.27.22,2.14.64,2.61.42.47,1.01.7,1.77.7.73,0,1.29-.19,1.66-.58.37-.38.64-.94.81-1.66Z"/>
    <path class="cls-2" d="M177.75,21.98h3.84s0,4.33,0,4.33l4.02-4.33h5.11s-4.53,4.32-4.53,4.32l4.74,7.13h-4.73s-2.62-4.71-2.62-4.71l-1.98,1.91v2.79s-3.84,0-3.84,0v-11.45Z"/>
    <path class="cls-2" d="M197.76,29.67l3.65-.19c.08.55.23.96.48,1.25.39.47.96.7,1.69.71.55,0,.97-.11,1.27-.35.3-.24.45-.51.45-.82,0-.3-.14-.56-.42-.8-.28-.24-.94-.46-1.96-.68-1.68-.36-2.88-.83-3.59-1.41-.72-.58-1.08-1.32-1.07-2.22,0-.59.19-1.14.56-1.66.37-.52.93-.93,1.68-1.22.74-.29,1.76-.44,3.06-.43,1.59,0,2.79.29,3.62.84.83.55,1.32,1.42,1.47,2.61l-3.62.17c-.09-.52-.29-.89-.6-1.13-.31-.24-.73-.36-1.27-.36-.45,0-.78.08-1.01.26-.23.17-.34.38-.34.63,0,.18.09.35.28.49.18.15.61.3,1.29.43,1.67.34,2.87.69,3.6,1.04.72.35,1.25.77,1.58,1.28.33.51.49,1.07.49,1.7,0,.73-.23,1.41-.67,2.03-.44.62-1.06,1.08-1.86,1.4-.79.31-1.79.47-2.99.46-2.11-.01-3.57-.4-4.38-1.15-.81-.76-1.26-1.71-1.36-2.87Z"/>
    <path class="cls-2" d="M210.73,27.82c.02-1.87.6-3.32,1.75-4.35,1.14-1.03,2.72-1.53,4.74-1.51,2.07.02,3.65.55,4.76,1.59,1.11,1.04,1.65,2.48,1.63,4.32-.02,1.34-.27,2.43-.77,3.28s-1.21,1.51-2.14,1.98c-.93.47-2.08.69-3.46.68-1.4-.02-2.56-.23-3.47-.66-.91-.42-1.65-1.08-2.21-1.98-.56-.9-.83-2.02-.82-3.35ZM214.57,27.88c-.01,1.16.21,1.99.67,2.5.46.51,1.09.77,1.89.78.83,0,1.47-.23,1.92-.72s.69-1.37.71-2.66c.01-1.08-.21-1.87-.68-2.37-.47-.5-1.1-.76-1.91-.77-.77,0-1.4.24-1.87.74-.47.5-.72,1.33-.73,2.5Z"/>
    <path class="cls-2" d="M225.43,28c.03-1.87.62-3.32,1.77-4.34,1.15-1.02,2.73-1.51,4.75-1.48,2.07.04,3.65.58,4.75,1.62,1.1,1.04,1.63,2.49,1.6,4.33-.02,1.34-.29,2.43-.79,3.28-.5.85-1.22,1.5-2.15,1.96-.93.46-2.09.68-3.47.65-1.4-.03-2.56-.25-3.47-.68-.91-.43-1.64-1.09-2.2-1.99-.55-.9-.82-2.02-.8-3.36ZM229.27,28.08c-.02,1.16.2,1.99.65,2.5.46.51,1.09.78,1.89.79.83.02,1.47-.22,1.93-.71.46-.49.7-1.37.73-2.65.02-1.08-.2-1.87-.67-2.38-.46-.51-1.1-.77-1.91-.78-.77-.01-1.4.23-1.88.72-.48.5-.73,1.33-.75,2.5Z"/>
    <path class="cls-2" d="M240.78,22.55l3.58.09,4.51,6.46.17-6.33,3.62.09-.3,11.45-3.62-.09-4.49-6.41-.16,6.29-3.61-.09.3-11.45Z"/>
  </g>
</svg>