<?xml version="1.0" encoding="UTF-8"?>
<svg xmlns="http://www.w3.org/2000/svg" version="1.1" viewBox="0 0 345.4 122.9">
  <defs>
    <style>
      .cls-1 {
        fill: #50806f;
      }

      .cls-2 {
        fill: #315e4d;
      }

      .cls-3 {
        fill: #fff;
      }
    </style>
  </defs>
  <!-- Generator: Adobe Illustrator 28.7.6, SVG Export Plug-In . SVG Version: 1.2.0 Build 188)  -->
  <g>
    <g id="Layer_1">
      <path class="cls-2" d="M236.9,50.8c-.3,3.1-1,8.6-.9,11.4.1,3.1.9,6.1,1.4,9.1.1,1,0,2,0,3-.2,1.4-.6,2.8-.9,4.4h1.1c11.9-11.6,27.9-14.8,40.3-24.3-13.7-2.9-27.1-5.5-40.9-3.6h0Z"/>
      <path class="cls-2" d="M58.8,53.4c8.2,8.2,25.3,11.4,30,22.3,1.1-.6,1.7-4.7,2.7-5.6-.3-.3,3.2-15.2,2.6-16.3-11.6-1-23.9.4-35.3-.4Z"/>
      <path class="cls-1" d="M342.9,69.2c-.5-.5-1.3-.8-2-1.2-2.5-1.3-5-2.8-7.6-3.9-2.8-1.1-5.8-1.6-8.6-2.4-1.2-.3-2.6-.3-3.4-1-2.2-1.7-4.9-1.5-7.3-2.3-2.4-.8-5-1.2-7.8-1.9,2-.6,3.7-1.1,5.4-1.5,1.5-.3,3.1-.5,4.6-.8,2.7-.7,5.3-1.7,8.1-2.1,2.2-.3,4.2-.6,6.2-1.9,1.8-1.1,3.8-1.8,5.7-2.6.2-1.6.1-2.8-1.7-3.2-2.2-.6-4.3-1.7-6.5-2.1-3.4-.7-7-.7-10.4-1.8-2.4-.8-5.1-.7-7.7-.9-2.6-.3-5.3-.5-7.9-.7-3.5-.3-7-.6-10.6-.7-3.8-.2-7.5-.2-11.3-.2-1.5,0-1.9-.5-1.9-2,0-6.3,0-12.5,0-18.8s0-1,0-1.5c-.3-2.5-.7-2-1.1-4.6,1-.1-1.6-3.1-2.7-3.7-1.5-.8-3-1.8-4.5-2.2-3-.7-6-1.2-9-1.5-5.1-.4-10.2-.6-15.3-.8-10.8-.3-21.6-2.5-32.4-2.7-3.9,0-7.8,0-11.7,0-12.2,0-24.4-.1-36.7-.2-3.1,0-6.2,0-9.4,0-3.3,0-6.6,0-10,0-7.9.2-15.9.5-23.8.8-3.9.2-7.8.5-11.6.7-5.2.3-10.5.5-15.7.8-2,.1-4,.4-6,.6-3.8.4-7.5,0-11.4,1-4.2,1.1-8.7.7-13.1,1-.2,0-.5,0-.8,0-3,.5-6,1.1-9,1.4-2.4.2-4.1,1.7-4,4.2,0,1.7.6,1.5.6,3.2,0,7.4,0,14.8,0,22.2v1.7c-2.4.4-4.7.7-6.9,1.1-1.7.3-3.5.5-5.2.8-.9.2-1.7.5-2.5.8-2.2.8-4.2,1.8-6.4,2.5-3.2,1-6.6,1.5-9.6,3.3-1.7,1-4,1.1-6.1,1.7-1.1.3-2.2.7-3.3,1.2-1.6.8-3.3.9-4.8,2.1-1,.9-2.6,1.2-4,1.5-1.6.3-1.8,1.4-1.9,2.7,0,1,0,2,0,3,3.9,0,7.4-.1,10.9,0,3.5.2,6.9-.5,10.4.6,3.1,1,6.4,1.3,9.6,1.9,0,.2,0,.5.1.7-1.3.5-2.5,1.1-3.8,1.6-1.5.6-3.1,1.1-4.5,1.8-1,.6-1.7,1.7-2.7,2.2-2.4,1.3-5,2.1-7.2,3.6-2.5,1.7-5.7,2.5-7.3,5.4-.1.2-.4.5-.6.6-2.6,1.2-2.7,3.4-2.4,5.8,3,.3,5.8-.4,8.5-1.3,1.9-.6,4-.6,6.1-.9.4,0,1.1,0,1.2-.2,1.1-1.9,3.2-.8,4.8-1.6,1.5-.8,3.5-.7,5.3-.9,2.4-.3,4.8-.5,7.2-.8,2.3-.2,4.5,0,6.9-.6,3.1-.7,6.5-.7,9.6-.7,10.8,0,21.7-1.2,32.4.6,1.6.3,3,0,4.3-.7-4.6-10.9-21.8-14.2-30-22.3,11.4.9,23.7-.6,35.3.5,0,0,0-.2-.1-.2,5.1-.7,10.1-1.1,15.1-1.7,8.6-1.1,17.4-.4,26-1.9h71c.6,0,1.2-.2,1.7.1.5.3.6.6,1.3,0,.6-.4,1.7-.2,2.6-.1,1.7.2,3.4.7,5.1.7,6,0,11.9,1,17.9,1h2c0,.2,0-.2,0,0,13.7-1.9,27.4-.3,41.2,2.7-12.4,9.5-28.5,12.7-40.3,24.3h15.1c.2,0,.5,0,.7,0,2.2-.5,4.3-1.2,6.5-1.4,2.4-.2,4.9,0,7.3,0h51.2c2.2,0,4.5.3,6.7,0,2.9-.4,5.8.2,8.8-.6,2.3-.6,4.6-.6,6.7-2.1,1.4-1,3.1-1.6,4.9-2.5-1-1.2-1.6-2.1-2.5-2.9h0Z"/>
      <g>
        <path class="cls-3" d="M79.2,26.5l3.5.7c-.2.8-.6,1.5-1,2-.5.5-1.1,1-1.8,1.3-.7.3-1.7.5-2.8.5-1.4,0-2.6,0-3.4-.4-.9-.3-1.7-.9-2.4-1.7s-1-1.9-1.1-3.2c0-1.7.5-3.1,1.6-4.1s2.7-1.5,4.8-1.6c1.6,0,2.9.2,3.9.7s1.7,1.3,2.2,2.4l-3.5.8c-.1-.3-.3-.5-.4-.7-.2-.2-.5-.4-.8-.5-.3-.1-.7-.2-1.1-.2-.9,0-1.6.4-2,1-.3.5-.5,1.1-.5,2.1,0,1.2.3,2,.7,2.4.4.4,1.1.6,1.8.6.8,0,1.3-.2,1.7-.6s.6-.9.8-1.5h0Z"/>
        <path class="cls-3" d="M84.3,25.4c0-1.7.5-3.1,1.7-4.1,1.2-1,2.8-1.5,4.9-1.6,2.2,0,3.8.4,5,1.3,1.2.9,1.8,2.2,1.8,3.9,0,1.2-.2,2.2-.7,3s-1.2,1.4-2.2,1.9c-.9.5-2.1.7-3.6.8-1.5,0-2.7-.1-3.6-.5-1-.4-1.8-.9-2.4-1.7s-.9-1.8-1-3h0ZM88.3,25.3c0,1.1.3,1.8.8,2.3.5.5,1.2.7,2,.6.9,0,1.5-.3,2-.7.5-.5.7-1.3.6-2.5,0-1-.3-1.7-.8-2.1s-1.2-.6-2-.6c-.8,0-1.4.3-1.9.7-.5.5-.7,1.2-.7,2.3h0Z"/>
        <path class="cls-3" d="M100,19.7h5.2c0-.1,2.1,6.2,2.1,6.2l1.9-6.4h5.2c0-.1.2,10.4.2,10.4h-3.3c0,0-.2-8-.2-8l-2.4,8.1h-3c0,0-2.7-7.9-2.7-7.9l.2,8h-3.3c0,0-.2-10.4-.2-10.4h0Z"/>
        <path class="cls-3" d="M117.3,19.4h10.7c0-.1,0,2.1,0,2.1h-6.7c0,0,0,1.8,0,1.8h6.2c0,0,0,2,0,2h-6.2c0,0,0,2.2,0,2.2h6.9c0-.1,0,2.3,0,2.3h-10.9c0,.1-.2-10.4-.2-10.4h0Z"/>
        <path class="cls-3" d="M136.8,19.1h7.5c1.2,0,2.2.2,2.9.7s1,1.1,1,1.9-.2,1.2-.7,1.6c-.3.3-.8.5-1.4.7.9.2,1.6.5,2.1.9s.7,1,.7,1.7-.1,1-.4,1.5c-.3.4-.7.8-1.3,1-.3.2-.8.3-1.5.4-.9.1-1.5.2-1.8.2h-6.9c0,0,0-10.4,0-10.4h0ZM140.9,23.2h1.7c.6,0,1.1-.1,1.3-.3.2-.2.4-.4.4-.8s-.1-.5-.4-.7c-.2-.2-.7-.2-1.3-.2h-1.8s0,2,0,2h0ZM140.9,27.4h2c.7,0,1.2-.1,1.4-.3.3-.2.4-.5.4-.8s-.1-.6-.4-.8-.8-.3-1.5-.3h-2s0,2.2,0,2.2h0Z"/>
        <path class="cls-3" d="M158.8,27.7h-4.5s-.6,1.8-.6,1.8h-4.1s4.8-10.5,4.8-10.5h4.4s4.9,10.5,4.9,10.5h-4.2s-.7-1.7-.7-1.7h0ZM157.9,25.5l-1.4-3.8-1.4,3.8h2.8s0,0,0,0Z"/>
        <path class="cls-3" d="M173.4,25.1l3.5.9c-.2.8-.6,1.5-1.1,2-.5.5-1.1.9-1.9,1.2-.8.3-1.7.4-2.9.4-1.4,0-2.6-.2-3.4-.5s-1.7-.9-2.3-1.8c-.6-.8-1-1.9-1-3.2,0-1.7.6-3.1,1.7-4s2.7-1.4,4.8-1.4,2.9.3,3.8.8c.9.5,1.6,1.4,2.1,2.5l-3.5.6c-.1-.3-.2-.5-.4-.7-.2-.2-.5-.4-.8-.6s-.7-.2-1.1-.2c-.9,0-1.6.3-2.1.9-.4.4-.5,1.1-.5,2.1s.2,2,.7,2.4c.4.4,1.1.6,1.8.6.8,0,1.3-.2,1.7-.5s.7-.9.9-1.5h0Z"/>
        <path class="cls-3" d="M179.1,18.9h4v4l4.2-4h5.3l-4.7,4,4.9,6.6h-4.9l-2.7-4.3-2.1,1.8v2.6h-4v-10.5h0Z"/>
        <path class="cls-3" d="M199.9,26l3.8-.2c0,.5.2.9.5,1.1.4.4,1,.6,1.8.6.6,0,1-.1,1.3-.3.3-.2.5-.5.5-.8s-.1-.5-.4-.7c-.3-.2-1-.4-2-.6-1.8-.3-3-.8-3.7-1.3-.8-.5-1.1-1.2-1.1-2,0-.5.2-1,.6-1.5.4-.5,1-.9,1.7-1.1s1.8-.4,3.2-.4c1.6,0,2.9.3,3.8.8.9.5,1.4,1.3,1.5,2.4h-3.8c-.1-.3-.3-.7-.6-.9s-.8-.3-1.3-.3-.8,0-1.1.2-.4.4-.4.6c0,.2,0,.3.3.5.2.1.6.3,1.3.4,1.7.3,3,.6,3.7,1,.8.3,1.3.7,1.6,1.2.3.5.5,1,.5,1.6,0,.7-.2,1.3-.7,1.9-.5.6-1.1,1-1.9,1.3-.8.3-1.9.4-3.1.4-2.2,0-3.7-.4-4.6-1.1s-1.3-1.6-1.4-2.6h0Z"/>
        <path class="cls-3" d="M213.3,24.3c0-1.7.6-3,1.8-4s2.8-1.4,4.9-1.4c2.1,0,3.8.5,4.9,1.5,1.1,1,1.7,2.3,1.7,4,0,1.2-.3,2.2-.8,3-.5.8-1.3,1.4-2.2,1.8s-2.2.6-3.6.6c-1.5,0-2.7-.2-3.6-.6-.9-.4-1.7-1-2.3-1.8-.6-.8-.9-1.9-.9-3.1h0ZM217.3,24.4c0,1.1.2,1.8.7,2.3.5.5,1.1.7,2,.7.9,0,1.5-.2,2-.7.5-.5.7-1.3.7-2.4,0-1-.2-1.7-.7-2.2-.5-.5-1.1-.7-2-.7-.8,0-1.4.2-1.9.7-.5.5-.7,1.2-.8,2.3h0Z"/>
        <path class="cls-3" d="M228.6,24.5c0-1.7.6-3,1.8-4,1.2-.9,2.8-1.4,4.9-1.4,2.1,0,3.8.5,4.9,1.5,1.1,1,1.7,2.3,1.7,4,0,1.2-.3,2.2-.8,3s-1.3,1.4-2.2,1.8-2.2.6-3.6.6c-1.4,0-2.7-.2-3.6-.6s-1.7-1-2.3-1.8-.9-1.9-.8-3.1ZM232.6,24.6c0,1.1.2,1.8.7,2.3s1.1.7,2,.7c.9,0,1.5-.2,2-.6.5-.5.7-1.3.7-2.4,0-1-.2-1.7-.7-2.2-.5-.5-1.1-.7-2-.7-.8,0-1.4.2-1.9.7-.5.5-.8,1.2-.8,2.3h0Z"/>
        <path class="cls-3" d="M244.5,19.5h3.7c0,0,4.7,6,4.7,6v-5.8c.1,0,3.9,0,3.9,0l-.3,10.5h-3.8c0,0-4.7-6-4.7-6v5.8c-.1,0-3.9,0-3.9,0l.3-10.5h0Z"/>
      </g>
    </g>
  </g>
</svg>