<?xml version="1.0" encoding="UTF-8"?>
<svg id="Layer_1" xmlns="http://www.w3.org/2000/svg" viewBox="0 0 762.44 166.48">
  <defs>
    <style>
      .cls-1 {
        fill: #fff;
      }
    </style>
  </defs>
  <path class="cls-1" d="M23.08,35.41c-1.38.67-2.48,1.16-3.54,1.73-.55.3-.99.78-1.52,1.11-1.07.66-2.16,1.26-3.24,1.89-.65.38-1.3.78-1.95,1.15-1.53.87-3.01,1.86-4.61,2.58-1.9.86-3.2,2.56-5.31,3.27-1.11.38-1.76.46-2.42-.2-.37-.38-.63-1.3-.42-1.73.32-.66,1-1.44,1.67-1.6,2.53-.63,4.59-1.93,6.48-3.66.6-.56,1.42-.88,2.14-1.31,1.42-.85,2.83-1.72,4.25-2.56.89-.53,1.76-1.13,2.7-1.54,2.1-.92,4.3-1.63,6.35-2.66,1.52-.77,2.75-2.44,4.3-2.72,1.87-.35,3.79-2.14,5.85-.48.05.04.12.07.17.06,3-.65,3.79,1.99,4.83,3.66,1.14,1.81,1.5,4.11,2.19,6.2.08.23.02.61.17.7,2.44,1.58,1.17,3.52.54,5.39-.48,1.41-.93,2.84-1.48,4.23-.54,1.38-1.19,2.72-1.87,4.26,2.29.74,2.81-1.54,4.07-2.38.92-.61,1.61-1.57,2.4-2.38.62-.63,1.22-1.29,1.86-1.91,1.2-1.18,2.08-2.46,3.91-3.23,2.05-.86,3.45-3.25,5.13-4.98.33-.34.6-.74.95-1.05.72-.64,1.43-1.33,2.25-1.82.73-.43,1.6-.84,2.42-.86,3.26-.1,6.53-.05,9.79-.04,1.67,0,4.11,2.41,4.12,4.07.02,2.45,0,4.89,0,7.34,0,1.25-.78,2.81-1.64,4.16-.38.6-.21,1.54-.35,2.94.95-.72,1.87-1.1,1.89-1.49.06-2.23,2.18-2.84,3.19-4.29.57-.82,1.36-1.53,2.16-2.15.8-.62,1.8-1,2.59-1.63.96-.77,1.8-1.69,2.68-2.55,1.02-1.01,2.02-2.03,3.05-3.03.59-.57,1.51-1.02,1.74-1.71.57-1.69,1.79-1.75,3.16-1.67,1.1-2.6,2.97-3.59,5.18-2.26,1.39.84,2.35.41,3.48-.03,1.86-.71,3.45.13,3.92,2.29,1.95-.19,3.87-.08,4.48,1.76-.49,1.68-.93,2.97-1.23,4.29-.31,1.38-.32,2.85-1.63,3.8-.13.09-.21.3-.24.47-.27,1.65-.49,3.3-.8,4.94-.17.91-.49,1.79-.74,2.68-.74,2.56-1.5,5.11-2.2,7.68-.13.47.06,1.03-.08,1.49-.16.55-.52,1.03-.79,1.55-.11.2-.27.41-.29.62-.27,2.21-.3,4.48-.83,6.63-.68,2.76-.52,5.71-2.01,8.31-.59,1.03-.62,2.37-.91,3.57-.64,2.62-1.26,5.24-1.94,7.84-.14.54-.52,1.02-.72,1.55-.76,2.04-1.35,4.16-2.31,6.11-.45.91-1.47,1.79-2.43,2.14-1.96.72-4.08.98-6.07,1.62-1.35.43-2.61,1.16-3.87,1.83-1.54.81-3.04,1.68-4.55,2.53-.22-.17-.44-.34-.66-.51.32-1.44.7-2.86.95-4.31.28-1.62.39-3.26.66-4.88.3-1.84-.52-3.86,1.18-5.52.63-.61.6-1.9.84-2.89.79-3.36,1.27-6.82,2.46-10.03.55-1.49-.17-3.5,1.63-4.55.19-.11.04-.72.12-1.09.45-2.18.87-4.37,1.41-6.52.73-2.9,1.5-5.8,2.39-8.65.53-1.7,1.39-3.3,2.02-4.98.74-1.98,1.34-4.02,2.1-5.99.43-1.12,1.14-2.14,1.55-3.27.28-.76.26-1.64.37-2.45-.36-.05-.57-.12-.6-.09-1.4,2.42-4.11,2.97-6.23,4.35-1.21.79-1.77,1.89-2.55,2.99-1.48,2.09-3.3,4.28-5.51,5.43-2.11,1.1-3.25,2.45-4.31,4.42-.75,1.39-2.48,2.22-3.45,3.54-.86,1.16-1.14,2.74-1.94,3.96-.69,1.05-.94,2.09-1.19,3.3-.41,1.99-1.45,3.85-2.07,5.81-.42,1.35-.63,2.77-.83,4.18-.31,2.14-.45,4.31-.81,6.44-.14.82-.76,1.55-1.08,2.35-.76,1.92-1.5,3.84-2.14,5.8-.1.31.3.85.57,1.22.48.66,1.04,1.27,1.56,1.9-.44.29-.86.63-1.32.88-1.41.73-2.86,1.41-4.27,2.15-.62.32-1.14.88-1.78,1.11-.98.35-2.02.52-3.04.77-2.24.56-4.56.84-6.45,2.43-1.19,1-2.53,1.82-4.23,3.03v-5.62c-.55.39-.86.6-1.32.92-.11-.53-.29-.98-.28-1.43,0-3.82.89-7.48,2.15-11.07.36-1.02.64-2.09.86-3.15.86-4.07,3.1-7.76,2.88-12.18-.09-1.83,1.14-3.73,1.79-5.6.99-2.85,1.75-5.81,3.07-8.51,1.17-2.4.82-5.41,3.14-7.36.49-.41.45-1.48.59-2.26.38-2.11.74-4.23,1.15-6.63-3.48,4.3-7.13,7.87-10.93,11.35-.74.66-1.49,1.32-2.21,2-.56.52-1.09,1.08-1.63,1.61-.23.22-.43.52-.71.63-1.67.64-2.54,2.03-3.45,3.43-.39.6-1.21.99-1.45,1.62-.98,2.53-1.65,5.19-2.74,7.66-1.25,2.84-1.61,5.85-2.34,8.79-.24.97-.04,2.54-1.55,3.31-.61.31-.71,1.78-.89,2.74-.33,1.76-.42,3.57-.83,5.31-.57,2.41-1.35,4.77-2.03,7.16-.15.52-.23,1.07-.27,1.27-2.77,1.14-5.37,2.2-7.96,3.26-.58-1.49-1.3-1.6-3.59-.25-1.04.62-1.99,1.42-3.07,1.94-.63.3-1.45.21-2.19.29-.11-.22-.22-.44-.34-.66-.68,1.16-1.37,2.32-2.12,3.6-.4.32-.94.86-1.58,1.22-.3.17-.94.16-1.18-.05-1.61-1.35-1.97-4.66-1.2-6.71,1.03-2.73,1.69-5.61,2.61-8.38.6-1.81,1.46-3.54,2.06-5.36.54-1.62.96-3.3,1.29-4.98.51-2.57.84-5.15,2.42-7.4.55-.78.61-1.92.88-2.9.8-2.88,1.57-5.76,2.39-8.63.18-.62.38-1.3.76-1.8,1.75-2.29,1.82-5.13,2.59-7.73.82-2.76,1.38-5.6,2.25-8.34.98-3.12,2.21-6.15,3.24-9.26.28-.85.23-1.8.33-2.68Z"/>
  <path class="cls-1" d="M280.59,85.89c-.54.32-1.06.7-1.64.94-1.91.79-4.07,1.2-5.69,2.37-1.9,1.37-4.04,1.14-6.02,1.79-3.03.99-6.1,1.65-9.33,1.59-.46,0-1.24,1.07-1.37,1.74-.4,2.12.14,4.81-.98,6.32-1.55,2.08-.42,4.32-1.54,6.37-.94,1.72-.69,4.1-.98,6.33-.42.14-.9.31-1.44.49,0,1.43.1,2.82-.03,4.18-.14,1.41-.12,3.04-.84,4.14-1.53,2.37-1.27,5.01-1.79,7.53-.34,1.63-.91,3.22-1.37,4.83-.05.18-.09.36-.11.54-.26,2.02-.1,4.23-.89,6.02-.68,1.56.27,3.62-1.59,4.8-.32.21-.12,1.25-.18,2.35,2.52-2.21,3.71-.66,5.11,1.56-1.53.75-3.16,1.31-4.5,2.28-.9.65-1.41,1.85-2.04,2.84-1.4,2.2-2.9,4.29-5.43,5.36-.58.24-1.08.72-1.67.89-.85.24-1.93.68-2.61.38-2.39-1.07-4.82.09-5.16,2.59-1.24.72-2.4,1.39-4.08,2.37.41-4.24-.73-7.89.73-11.44.07-.17.08-.37.06-.56-.2-2.57,1.28-4.71,1.77-7.1.39-1.87.53-3.8.9-5.67.37-1.86.94-3.68,1.35-5.54.31-1.42.47-2.88.74-4.32.41-2.21.88-4.4,1.29-6.61.28-1.5.03-3.42.88-4.44,2.21-2.64,1.63-5.74,2.14-8.66.28-1.62.18-3.41.86-4.83,1.43-2.99,1.31-6.17,1.79-9.28.49-3.2,1-6.39,1.51-9.59.5-3.18.56-6.52,1.62-9.49,1.12-3.14,1.23-6.34,1.76-9.51.03-.18.02-.5.1-.53,2.28-.78,1.08-2.72,1.4-4.14.45-2.05.88-4.1,1.33-6.15.03-.12.08-.24.1-.36.41-2.52.79-5.04,1.22-7.55.31-1.79.69-3.56,1.13-5.82-2.87.88-5.22,1.61-7.07,2.18-1.32,1.1-2.27,2.02-3.38,2.68-.19.11-1.41-.83-1.54-1.41-.25-1.19-.07-2.48-.07-3.62,2.38-1.07,4.55-2.12,6.78-3.04,2.02-.83,4.08-1.6,6.17-2.25,1.41-.44,3.49-.14,4.22-1.03,1.08-1.3,2.54-.9,3.58-1.72.18-.14.43-.2.65-.28,1.76-.61,3.51-1.22,5.27-1.83.12-.04.24-.04.37-.06,2.28-.26,4.57-.42,6.84-.79,2.24-.37,4.45-.94,6.67-1.41.36-.08.75-.05,1.12-.07,5.53-.29,11.05-.02,16.35,1.59,2.32.71,4.88,1.81,6.43,3.54,1.56,1.74,3.52,2.96,4.94,4.74.8,1.01,1.56,2.31,1.71,3.55.44,3.82.91,7.7.72,11.52-.13,2.59-1.75,5.1-1.94,7.7-.16,2.16-2.27,3.26-2.13,5.35,0,.12-.2.28-.33.39-1.2,1.06-2.42,2.1-3.61,3.16-.31.27-.67.55-.85.9-.94,1.79-2.14,3-3.97,4.22-3.05,2.03-6.43,2.98-9.58,4.57-1.27.64-2.45,1.48-3.67,2.22l-.17.18ZM278.75,76.11c2.24-.58,3.62-2.26,4.39-4.19.96-2.4,2.55-4.47,2.95-7.22.57-3.91,2.1-7.67,2.7-11.58.45-2.94.17-6.01.04-9.02-.03-.7-.6-1.66-1.2-1.99-.95-.51-2.15-.87-3.21-.79-4.1.31-8.24-.85-12.31.63-2.11.77-4.4,1.02-6.28,1.44-.84,2.38.25,4.41-1.26,6.48-1.05,1.44-.72,3.93-.91,5.97-.31,3.21-.54,6.43-.81,9.64-.74.35-1.34.86-1.42,1.44-.35,2.58-.54,5.18-.81,7.76-.02.24-.06.64-.18.68-1.84.63-.62,2.12-.92,3.18-.3,1.07-.46,2.19-.7,3.36.89,0,1.74.26,2.23-.05,2.05-1.31,4.55-1.06,6.72-2.37,2.02-1.22,4.83-1.08,7.24-1.73,1.31-.35,2.51-1.09,3.76-1.65Z"/>
  <path class="cls-1" d="M153.63,85.1c-6.91,2.35-12.7,7.09-20.15,7.38-.13.53-.25,1.02-.45,1.83-.76-.68-1.31-1.17-1.9-1.69-1.59.54-3.02,2.41-5.15.73-.34-.27-1.62.59-2.43,1.01-1.05.54-2.07,1.17-3.41,1.93,0-3.75-.2-6.95.05-10.13.26-3.33.57-6.75,1.6-9.89.58-1.76-.17-3.83,1.53-5.44.79-.75.73-2.5.88-3.82.33-3.01.51-6.04.84-9.04.1-.9.31-1.89.81-2.61,1.44-2.12,2.41-4.29,2.66-6.93.19-2.03,1.18-4,1.9-5.96.62-1.7,2.32-2.3,3.75-2.8,4.38-1.55,8.87-2.11,13.09.52.5.31.62,1.64.49,2.42-.12.72-.82,1.34-1.46,2.29-1.96.21-.54,2.06-.89,3.05.56.46,1.01.84,1.46,1.21-.44.38-.88.76-.98.85-.71,2.86-1.45,5.41-1.97,8.01-.41,2.06-.53,4.17-.81,6.26-.12.87.55,2.06-.95,2.42-.1.02-.12.45-.16.69-.51,2.98-.98,5.97-1.53,8.95-.45,2.43-.97,4.84-1.52,7.25-.23,1-.62,1.95-1.01,3.14,2.22-.53,4.03-.94,5.82-1.4.33-.09.62-.4.88-.65.38-.36.69-1.07,1.08-1.11,3.68-.38,5.57-3.32,7.99-5.49,1.53-1.38,2.63-2.79,3.23-5.07.75-2.85,1.13-5.72,1.66-8.58.71-3.81,1.51-7.6,2.25-11.4.27-1.37.37-2.78.77-4.11.83-2.8,1.79-5.57,2.75-8.34.07-.2.48-.3.76-.41,2.14-.81,3.84-2.59,6.46-2.42,1.97.13,3.98-.48,5.98-.58,2.2-.11,3.88.7,4.99,2.83.52,1,1.78,1.62,3,2.67-1.16.45-2.1.82-2.94,1.14-.7,1.85-1.48,3.73-2.1,5.65-.41,1.29-.53,2.66-.87,3.98-.54,2.09-1.15,4.16-1.75,6.23-.12.43-.4.82-.48,1.25-.17.87.45,2.04-.99,2.41-.1.03-.1.45-.15.69-.74,3.13-1.53,6.24-2.22,9.38-.35,1.57-.28,3.27-.87,4.72-.54,1.32.01,3.1-1.62,4-.2.11-.2.7-.17,1.06.14,1.96-.57,3.66-1.36,5.41-.54,1.21-.62,2.63-.91,3.96-.5,2.29-.97,4.59-1.55,6.86-.18.7-.82,1.28-1.07,1.98-1.02,2.87-1.87,5.8-2.96,8.65-1.31,3.43-2.73,6.82-4.25,10.17-.54,1.19-.56,2.88-2.34,3.23-.09.02-.2.17-.21.27-.46,3.76-3.16,5.94-5.66,8.38-2.01,1.96-4.22,3.38-6.73,4.54-1.4.65-2.49,1.92-3.82,2.75-2.02,1.26-4.14,2.37-6.21,3.56-1.55.89-3.06,1.86-4.66,2.65-1.68.84-3.47,1.46-5.18,2.26-1.93.9-3.81,1.93-5.75,2.82-1.14.52-2.33.94-3.53,1.31-4.97,1.52-10.1.9-15.1.63-4.07-.22-7.46-2.53-9.25-6.52-.86-1.92.86-4.91,3.02-5.4.53-.12,1.01-.49,1.44-.72.9.43,1.97.86,2.96,1.44,1.16.69,2.18,1.64,3.39,2.23,1.16.56,2.47,1.07,3.74,1.14,3.06.17,6.14.07,9.21.07.37,0,.83.08,1.11-.09,1.63-1.06,3.21-2.2,4.83-3.29.48-.32,1.07-.47,1.53-.81,2.41-1.78,5.05-3.35,7.12-5.47,2.36-2.42,4.31-5.27,6.25-8.07,1.66-2.39,3.09-4.94,4.53-7.46.77-1.34,1.33-2.8,2-4.2.78-1.62,1.63-3.21,2.35-4.87.37-.85.36-1.87.77-2.68.98-1.94,2.25-3.75,3.16-5.72.84-1.84,1.27-3.86,2.06-5.73.89-2.1.89-4.45,2.4-6.43.83-1.09.62-2.98.95-4.92Z"/>
  <path class="cls-1" d="M363.57,85.22c-6.82,2.14-13.13,6.7-20.75,8.03-.05.65-.1,1.19-.14,1.72-.18.1-.35.2-.53.3-.42-.55-.84-1.11-1.47-1.95h-2.64c-.1.49-.22,1.07-.37,1.78-.7,0-1.4.1-2.06-.02-3.44-.59-6.11,1.45-9.04,2.59-.2.08-.34.34-.54.4-1.17.35-5.78-1.3-6.43-2.31-.12-.19-.24-.49-.18-.68.35-1.24-.69-1.68-1.22-2.48-.89-1.31-1.7-2.75-2.13-4.25-.89-3.06-1.62-6.15-1.71-9.4-.03-1.07-1.27-2.11-1.95-3.17-.13.09-.26.18-.39.26-.3-2.38-.82-4.76-.84-7.14-.02-2.39.19-4.86.85-7.14.3-1.03,1.34-2.01,1.78-3.19.42-1.14.84-2.31,1.47-3.34,1.12-1.83,2.23-3.7,3.65-5.28,1.13-1.27,3.43-1.87,3.93-3.24.98-2.7,3.44-3.11,5.29-4.3,2.33-1.5,5.05-2.44,7.64-3.5.4-.16,1.19.16,1.57.5,1.91,1.7,3.71.18,5.32-.37,3.4-1.15,6.72-1.66,10.24-.72,2.66.71,5.38,1.14,8.03,1.88,1.52.42,3.01,1.1,4.4,1.87,1.47.81,2.81,1.86,4.22,2.82,1.82-1.77,4.1-2.05,5.39-.33.73.98.9,2.39,1.31,3.6.22.65.59,1.31.59,1.96,0,2.07,1.98,3.65,1.35,5.91-.14.51.33,1.38.77,1.83,1.69,1.7,1.88,3.04.82,5.44-.65,1.47-.95,3.11-1.69,4.53-1,1.93-2.27,3.72-3.41,5.58-.5.82-.92,1.68-1.44,2.49-.31.49-.69.97-1.12,1.36-1.68,1.53-3.37,3.04-5.09,4.5-.47.4-1.19.52-1.62.95-.62.62-1.07,1.4-1.87,2.48ZM346.94,83.87c3.29-1.57,6.41-2.98,8.15-6.12.85-1.53,1.3-3.27,2.02-4.87,1.22-2.69,2.42-5.5,2.03-8.41-.29-2.2,0-4.55-1.52-6.7-.73-1.04-.77-2.73-1.53-4.16-2.02-3.83-5.76-5.02-8.62-6.84-.64-.81-1.07-1.36-1.79-2.27-.47,2.81-3.41,4.61-5.11,3.74-.95-.49-3.11.55-3.5,1.56-.28.72-.76,1.37-1.17,2.04-.98,1.62-3.69,2.09-3.13,4.18-1.01,1.21-1.77,2.06-2.44,2.96-.79,1.06-1.89,2.08-2.19,3.29-.54,2.21-.73,4.53-.8,6.81-.04,1.33.55,2.66.67,4.01.16,1.72.12,3.31,1.06,5.02,1.38,2.52,3,4.47,5.65,5.56.44,2.81,1.67,2.97,12.07,1.49.05-.5.11-1.03.14-1.28Z"/>
  <path class="cls-1" d="M531.95,12.52c.76-.82,1.57-1.64,2.33-2.49,1.23-1.39,2.89-1.27,4.51-1.64,1.64-.38,3.46-.89,4.85-2.21.54-.51,1.58-.51,2.41-.71,1.49-.37,2.98-.72,4.47-1.08.82-.19,1.65-.34,2.45-.57,1.63-.46,7.73.05,9.2,2.15.13.19.15.45.25.73-1.04.46-2.02.9-3.26,1.45,5.1,4.02,8.61,8.7,7.1,15.72-1.56.56-3.31,1.19-4.81,1.72-.77-2.69-1.08-5.17-2.18-7.25-.98-1.86-2.58-3.7-4.37-4.73-1.59-.91-3.84-.92-5.79-.87-1.17.03-2.4.82-3.43,1.53-1.38.94-2.62,2.1-3.87,3.22-.27.24-.46.67-.51,1.04-.29,1.83-.54,3.67-.76,5.51-.28,2.4.22,5.28-.96,7.08-1.38,2.12-.08,4.48-1.57,6.34-.35.43,0,1.35-.14,2.02-.34,1.77-.76,3.53-1.2,5.54,3.47,0,7.06,0,10.65,0,1.88,0,3.78.15,5.64-.01,1.77-.16,2.83.85,3.98,1.86.81.71.88,1.1-.3,1.61-1.52.66-2.84,1.78-4.35,2.46-1.11.5-2.38.81-3.59.85-3.83.1-7.66.07-11.48.02-1.72-.02-2.41.71-2.39,2.41.02.98.58,2.27-.98,2.77-.1.03-.08.46-.12.7-.51,3.23-.85,6.5-1.57,9.69-.77,3.44-1.55,6.89-2.43,10.27-.57,2.17-.83,4.66-2.19,6.71-.53.79-.45,1.98-.7,3.23,1.84,2.1,1.7,2.89-1,3.64.03,1.48-.14,2.86-2.16,2.79-.15,0-.34.13-.46.24-1.08.99-2.06,2.1-3.24,2.95-1.87,1.35-3.85,2.55-5.81,3.79-1.71,1.08-3.44,2.11-5.47,3.36-.15-1.28-.23-1.94-.31-2.6-.09.07-.19.15-.28.22-.62-.68-1.66-1.31-1.75-2.05-.12-.98.23-2.18,1.59-2.58.46-.13,1.06-.6,1.15-1.01.28-1.26.41-2.43,1.09-3.7.83-1.56.6-3.67.94-5.51.32-1.72.81-3.42,1.22-5.12.3-1.23.66-2.44.91-3.68.33-1.6.52-3.24.88-4.84.47-2.13,1.05-4.24,1.59-6.35.06-.24.2-.46.23-.7.28-2.5.48-5.02.83-7.51.33-2.32.82-4.62,1.33-7.39-1.76.34-3.42.77-5.11.97-1.36.16-2.87.37-4.11-.04-1.69-.56-1.37-2.35-1.11-3.66.14-.71,1.05-1.67,1.74-1.79,3.04-.53,6.12-.79,9.41-1.18,1.74-3.39,2.07-7.45,2.78-11.43.61-3.44,1.01-7.04,2.38-10.19,1.23-2.83,1.17-5.85,2.3-8.62.49-1.2.31-2.69.86-3.85,1.11-2.34,2.03-2.3,3.54-.16.26.37.72.61,1.12.95Z"/>
  <path class="cls-1" d="M476.23,74.29c-.8.08-1.34.14-1.7.17-.7,3.02-1.36,5.88-2.05,8.85,1.24-.26,2.28-.23,3.01-.69.75-.48,1.15-1.49,1.79-2.18.74-.79,1.61-1.45,2.38-2.21.74-.74,1.38-1.6,2.15-2.3.9-.81,1.82-1.92,2.89-2.15,1.18-.25,2.62.16,3.81.63,1.41.55,1.59,2.36.54,3.5-1.3,1.42-2.86,2.43-4.46,3.51-1.92,1.29-4.38,2.24-5.69,4.79-.64,1.25-2.28,2.34-3,3.89-2.43-.68-3.37,1.83-5.2,2.55-1.48.58-2.45,2.48-3.63,3.82-.1.11,0,.51-.07.53-3.13,1.06-4.83,4.96-8.69,4.46-.37-2.09-.72-4.15-1.09-6.24-1.53.79-3.26-.3-3.32-2.17-.09-2.95-.47-5.99.13-8.81.39-1.83-.21-4.42,2.23-5.54-.34-2,1.38-3.73.55-5.94-.41-1.09.37-2.63.66-3.96.13-.63.37-1.24.53-1.87.42-1.61.81-3.23,1.24-4.85.3-1.16.62-2.32.95-3.47.6-2.07,2.09-4.37,1.62-6.16-.61-2.33,1.09-3.94.36-6.15-2.72-.69-5.89.52-9-.25v-1.97c.93-.84,1.78-1.6,2.64-2.37-.08-.15-.16-.3-.24-.44,2.38,0,4.77-.12,7.13.05,1.22.09,1.89-.57,2.24-1.34.54-1.18.7-2.52,1.17-3.78,1.02-2.78,1.09-5.88,1.74-8.82.44-1.97,1.19-3.88,1.81-5.81.05-.17.25-.32.25-.48.02-2.25,1.37-4.06,2-6.1.06-.21-.03-.47-.04-.59-1.05.22-2.04.44-3.03.65-.61-3.03-.39-3.03,2.57-4.93,1.62-1.04,3.09-2.31,4.68-3.41.86-.6,1.76-1.21,2.73-1.54,1.87-.64,4.03-.72,5.65-1.72,1.89-1.17,2.73.04,3.88.85.9.63.95,1.13-.22,1.61-.73.3-1.33.92-2.2,1.54.56.69,1.22,1.49,1.88,2.3.23-.03.47-.07.7-.1-.61,2.76-1.22,5.52-1.82,8.28-.07.3-.04.62-.04.94.01,2.24-.25,4.37-1.79,6.2-.29.34-.01,1.11-.11,1.65-.15.79-.41,1.55-.62,2.33-.05.18-.17.45-.09.52,1.51,1.57-.25,3.07-.07,4.62-2.74.67-.92,2.8-1.63,4.43,1.88,0,3.48,0,5.09,0,.18,0,.45.01.54-.1,2.26-2.78,5.32-.73,7.95-1.28.23-.05.62.69.95,1.09,1.12-.55,1.94-.07,2.41,1.26-.58.63-1.03,1.16-1.52,1.63-1.38,1.33-2.92,2.33-4.92,2.32-1.13,0-2.26-.07-3.39.02-2.59.21-5.2.39-7.76.8-.97.15-1.92.72-1.87,2.16.03,1.01-.47,2.03-.64,3.06-.1.61-.21,1.33,0,1.86.67,1.6-.29,3-.39,4.5-.02.31-.36.6-.41.92-.53,2.98-1.03,5.96-1.53,8.94-.26,1.58-.49,3.17-.77,4.75-.05.3-.24.66-.48.83-.89.63-.98,1.07.1,1.62.28.14.33.76.54,1.31Z"/>
  <path class="cls-1" d="M587.83,96.62c-1.69,0-3.39.04-5.08-.02-.55-.02-1.08-.34-1.63-.49-.34-.09-.84-.31-1.03-.17-2.05,1.54-3.97.52-5.89-.24-2.76-1.1-4.1-3.91-6.48-5.51-.57-.38-.75-1.35-1.1-2.05-.8-1.64-1.28-3.56-2.45-4.86-2.22-2.48-1.88-5.36-1.81-8.17.08-3.18.04-6.51.94-9.5,1.1-3.65,2.96-7.11,4.83-10.46,1.06-1.89,2.62-3.64,4.32-4.99,1.99-1.59,4.37-2.67,6.59-3.98,1.2-.71,2.36-1.52,3.62-2.1,1.21-.55,2.51-.91,3.8-1.27,1.1-.31,2.23-.5,3.35-.73.3-.06.64-.1.94-.03,2.86.72,5.75,1.34,8.55,2.25,1.12.36,1.95,1.52,3.03,2.07,2.02,1.03,4.21,1.74,6.17,2.87,1.16.66,1.87,2.11,3.03,2.76,2.07,1.16,3,3.28,4.6,4.8,1.72,1.63,2.87,3.63,4,5.64.47.85.8,1.83.95,2.79.34,2.2.9,4.45.72,6.62-.31,3.71-1.51,7.29-3.13,10.65-.43.9-1.76,1.34-2.36,2.21-.35.51-.2,1.05-1.11,1.49-1.98.97-3.61,2.62-5.52,3.78-1.99,1.21-4.13,2.2-6.23,3.22-1.61.78-3.26,1.46-4.89,2.19-.31.14-.59.41-.9.44-3.27.36-6.54.68-9.81,1.02,0-.08-.02-.16-.03-.25ZM584.45,57.14c-1.27,1.16-.65,2.94-1.54,4.42-1.26,2.09-1.34,4.95-1.68,7.52-.4,3.07-.54,6.18-.79,9.27-.02.19.05.44-.04.55-1.76,2.09-.23,3.7.96,5.11,1.57,1.84,3.42,3.44,5.21,5.08.53.49,1.26.76,1.88,1.16,2.02,1.3,4.1.52,6.01-.11,1.1-.37,2.15-1.47,2.8-2.5.75-1.19,1.05-2.67,1.5-4.03.69-2.08,1.37-4.16,2.01-6.25.49-1.6,1.01-3.2,1.35-4.84.3-1.43.84-2.85,1.12-4.19.72-3.49.69-7.14.94-10.73.09-1.27-.36-2.27-1.6-2.84-.62-.28-1.17-.71-1.78-1.03-2.87-1.52-5.87-2.66-9.15-2.63-1.4.01-2.8.65-4.19.66-1.34,0-2.31.33-3.07,1.45-.46.67-1.54,1.28-1.49,1.85.05.71.97,1.36,1.56,2.09Z"/>
  <path class="cls-1" d="M324.49,110.55c4.71,0,9.42.09,14.13-.02,10.44-.23,20.97.15,31.31-1.02,14.7-1.66,29.37-.3,44.04-.9,7.63-.31,15.26-.51,22.88-.78,6.37-.23,12.73-.47,19.1-.74,35.37-1.51,70.75-.35,106.13-.61,9.83-.07,19.66.45,29.48.75,6.44.2,12.87.47,19.31.74,5.06.22,10.26-.17,15.13.91,5.66,1.25,11.26.59,16.88.97,5.17.35,10.36.52,15.54.69,9.89.32,19.78.55,29.67.87,5.75.18,11.5.46,17.25.68,6.87.26,13.75.47,20.62.78,3.93.17,8.07-.22,11.71.92,4.18,1.32,8.43.06,12.47,1.46,1.4.48,2.99.43,4.38.92,1.31.46.9,1.38.06,2.1-2.02,1.72-4.14,2.07-6.38.38-.18-.13-.48-.11-.73-.13-4.17-.27-8.34-.51-12.5-.79-6.35-.43-12.7-.99-19.06-1.3-4.64-.23-9.29-.1-13.93-.23-8.63-.23-17.27-.49-25.9-.79-6.19-.21-12.48.13-18.53-.93-6.49-1.14-12.93-.5-19.37-.98-4.05-.3-8.1-.48-12.16-.67-6.18-.29-12.35-.56-18.53-.82-5.81-.25-11.62-.51-17.43-.7-48.75-1.61-97.51-.62-146.27-.62-7.76,0-15.55.04-23.26.8-11.59,1.14-23.17.26-34.74.57-12.78.35-25.6.07-38.34.96-14.92,1.04-29.81.15-44.71.52-.63.02-1.29-.63-1.93-.96.45-.5.82-1.17,1.38-1.47.62-.33,1.41-.47,2.13-.47,6.72-.03,13.43-.02,20.15-.02,0-.02,0-.05,0-.07Z"/>
  <path class="cls-1" d="M631.81,102.58c-.09-1.09-.14-1.76-.19-2.4-1.97.83-3.89,1.64-5.82,2.45-.24-.19-.47-.38-.71-.56.3-1.2.58-2.41.92-3.6.2-.71.57-1.37.73-2.09.46-2,.8-4.03,1.29-6.03.38-1.58.97-3.12,1.35-4.7.79-3.29,1.52-6.59,2.25-9.9.68-3.07,1.34-6.13,1.98-9.21.53-2.55.98-5.12,1.5-7.67.48-2.37.53-4.98,1.61-7.04,1.5-2.85,1.14-6.03,2.36-8.89.67-1.58.56-3.47.92-5.2.36-1.75.9-3.46,1.32-5.19.47-1.98.88-3.97,1.32-5.96.71-3.16,1.47-6.32,2.13-9.49.37-1.79.77-3.62.77-5.43,0-1.43-.6-2.86-.92-4.24,1.64-.93,2.96-1.66,4.26-2.43,1.56-.93,3.06-1.95,4.66-2.81,1.42-.76,2.9-1.45,4.41-2,1.74-.63,3.07.49,3.06,2.41-1.8.58-1.86.85-.7,2.18.69.8,1.3,1.68,1.83,2.59.19.33.22.98.02,1.28-1.7,2.52-1.43,5.45-1.89,8.24-.28,1.69-.96,3.32-1.33,5-.08.39.64.94.58,1.35-.32,1.9-.8,3.76-1.19,5.65-.36,1.74-.67,3.49-1.03,5.23-.18.85.63,2.08-.94,2.43-.12.03-.14.56-.18.87-.51,3.23-1.01,6.47-1.53,9.7-.23,1.4-.43,2.81-.74,4.19-.44,1.93-.99,3.83-1.43,5.76-.12.54.02,1.14-.07,1.69-.14.79.62,1.97-.91,2.24-.11.02-.16.56-.2.86-.26,2.27-.45,4.56-.78,6.82-.44,3.05-.93,6.11-1.52,9.14-.39,2-.6,4.2-1.6,5.88-1.54,2.58-1.24,5.62-2.58,8.11-1.15,2.15-1.47,4.79-4.59,5.84-2.9.97-5.4,3.12-8.39,4.94ZM637.7,89.26c-1.65-.47-2.17.06-1.76,1.58,1.45.45,2.06,0,1.76-1.58Z"/>
  <path class="cls-1" d="M725.61,98.88c-1,0-2.01-.05-3.01,0-2.4.14-4.36-1.27-6.54-1.79-2.83-.68-3.66-3.39-5.71-4.86-1.38-.99-1.82-3.34-2.55-5.13-.95-2.33-1.06-4.94-1.81-7.23-.58-1.74-.97-3.39-.77-5.05.29-2.39.96-4.75,1.64-7.07.7-2.39,1.52-4.74,2.45-7.05.41-1.03,1.2-1.91,1.86-2.83.99-1.39,1.9-2.85,3.04-4.1.75-.82,1.88-1.28,2.79-1.98,1.02-.78,1.86-1.89,2.98-2.4,2.71-1.23,5.84-1.75,8.24-3.38,2.21-1.5,4.34-.49,6.41-1.02,2.18-.56,3.75,1.05,5.69,1.33,1.32.19,2.55,1.07,3.87,1.25,3.44.48,6.19,2.27,8.85,4.28,1.2.91,2.62,1.8,3.31,3.05.72,1.3,1.51,2.39,2.48,3.5,1.98,2.25,3.45,4.84,3.55,7.98.04,1.32.1,2.64-.01,3.95-.26,3.07-1.32,5.74-3.03,8.44-1.43,2.24-3.18,3.86-5.02,5.62-1.14,1.1-1.63,2.85-2.54,4.23-.4.61-1.05,1.14-1.71,1.48-2.58,1.34-5.21,2.58-7.82,3.86-1.91.94-3.79,1.97-5.75,2.81-1.36.58-2.81,1.02-4.26,1.33-2.18.46-4.39.75-6.58,1.11-.02-.11-.03-.22-.05-.34ZM728.42,89.07c2.08,0,5.02.02,7.95-.03.29,0,.61-.32.86-.55,2.04-1.98,4.11-3.94,6.09-5.99.77-.79,1.69-1.69,1.95-2.69.71-2.77,1.77-5.69,1.47-8.41-.4-3.69-.14-7.47-2.17-11.15-1.62-2.93-3.49-4.92-6.32-6.2-1.51-.68-3.15-1.14-4.79-1.45-1.14-.21-2.74-.47-3.49.11-1.93,1.51-3.62,3.38-5.18,5.29-.88,1.08-1.45,2.24-2.8,3.03-1.13.66-2.68,1.57-2.19,3.61.63,2.68-.67,5.44.96,8.28.82,1.42,1.17,3.65,1.51,5.46.42,2.24,2.09,3.58,2.71,5.6.51,1.66,2,3.03,3.44,5.07Z"/>
  <path class="cls-1" d="M426.01,50.08c-1.75-.51-1.67,1.01-2.27,1.71-.44.51-.82,1.09-1.35,1.49-.62.48-1.4.74-2.04,1.19-1.74,1.23-3.52,2.42-5.13,3.8-.63.54-.88,1.54-1.27,2.35-.6,1.29-1.17,2.59-1.76,3.88-.28.62-.71,1.21-.87,1.86-.54,2.28-1.07,4.57-1.45,6.88-.19,1.16.04,2.39-.11,3.56-.1.75-.57,1.44-.88,2.16-.2-.05-.39-.1-.59-.15,0,.37.02.74,0,1.11-.25,3.41-.39,6.83-.83,10.21-.11.84-1.14,1.62-1.86,2.32-1.22,1.18-3.07,1.16-4.39,2.45-.96.93-2.74,1.01-4.26,1.5-1.62-1.66-2.22-1.73-4.97-.46-.97.45-1.96.86-3.1,1.36-.08-.64-.15-1.28-.25-2.08-.73-.06-1.52-.13-2.39-.2-.43-2.39-.15-4.5,1.55-6.43.62-.69.82-1.86.97-2.84.33-2.19.48-4.41.77-6.6.03-.26.41-.48.63-.72.26-.29.69-.55.76-.89.33-1.5.05-3.5.94-4.42,1.59-1.66.6-3.67,1.47-5.39.75-1.46.86-3.31,1-5.01.16-1.91.07-3.83.04-5.75-.05-3.86.52-7.59,2.17-11.13.67-1.44,1.3-2.91,1.98-4.44-2.09-.75-2.27,2.06-3.86,1.96-.32-.78-.68-1.57-.98-2.39-.5-1.34,1.1-3.37,2.93-3.86,2.14-.57,4.23-1.18,6.17-2.39,1.15-.72,2.63-.48,3.59.78,1.15,1.52,2.34,1.62,3.47.24.87-1.07,3.22-.81,4.18.18,1.22,1.27,1.65,2.21.87,4.12-.59,1.44.33,3.48.5,5.26.07.73.03,1.49-.11,2.21-.14.73-.46,1.42-.77,2.33,2.74-2.06,5.18-3.82,7.51-5.71.73-.59,1.12-1.6,1.77-2.32.58-.63,1.23-1.39,1.99-1.63,2.11-.65,4.3-1.07,6.46-1.56,1.21-.27,2.42-.74,3.63-.72,2.59.04,5.08.82,6.2,3.34.79,1.78,2.32,3.69.63,5.9-.5.65-.85,1.64-.8,2.45.19,2.91-1.28,3.96-3.94,4.62-1.87.46-3.47,1.95-5.22,2.92-.75.41-1.75,1.09-2.35.87-1.52-.55-2.89-1.52-4.27-2.4-.19-.12-.1-.71-.1-1.08,0-1.5,0-2.99,0-4.47Z"/>
  <path class="cls-1" d="M673.29,45.61c2.86-.95,5.12-2.02,7.49-2.39,2.82-.44,5.74-.4,8.6-.28.71.03,1.37,1.15,2.2,1.9-.57.1-1.13.21-1.88.34,0,.74.06,1.55-.01,2.34-.23,2.59-.41,5.19-.78,7.77-.4,2.81-.98,5.59-1.47,8.39-.26,1.46-.16,3.1-.83,4.34-1.45,2.69-1.56,5.55-1.87,8.45-.3,2.82-.9,5.6-1.46,8.39-.44,2.18-.9,4.37-1.57,6.48-.34,1.06-1.04,2.07-1.79,2.91-.8.9-1.79,1.69-2.83,2.32-.77.47-1.89.43-2.59.96-.98.75-1.67.91-2.67.06-.31-.27-1.25-.18-1.65.1-1.09.78-2,1.82-3.08,2.61-.72.53-1.6.83-2.42,1.2-.46.21-.94.37-1.41.55-.66-2.15-.43-3.15.95-4.83.2-.25.06-1.13-.21-1.35-1.5-1.19-1.15-2.78-.92-4.24.33-2.08.96-4.12,1.34-6.19.58-3.1.46-6.49,1.73-9.25,1.29-2.8,1.33-5.75,2.29-8.54.95-2.77.84-5.9,1.79-8.66.54-1.59.17-3.39,1.51-4.9.84-.94.73-2.76.97-4.2.26-1.6.43-3.21.57-4.3Z"/>
  <path class="cls-1" d="M13.2,117.83c-.05,1.08-.1,2.06-.15,3.06-2.04-1-2.95-2.94-2.14-4.86.22-.53.96-1.13,1.49-1.17,1.94-.15,3.79-.4,5.63-1.15.74-.3,2.24-.79,2.81.83.06.18.81.19,1.23.18,3.83-.03,7.87.68,11.43-.31,4.35-1.21,8.76-.08,12.98-1.36.55-.17,1.3.52,1.95.49,4.91-.22,9.83-.42,14.72-.84,3.44-.29,6.85-1.02,10.29-1.33,1.25-.11,2.59.7,3.85.6,3.87-.3,7.72-1.01,11.59-1.24,4.13-.24,8.38-.69,12.38.03,2.85.51,5.6.29,8.39.53,1.17.1,2.04.24,2.24,1.64.21,1.51-.64,2.45-1.84,2.42-2.8-.08-5.69.83-8.4-.64-.35-.19-.86-.08-1.3-.08-5.46.05-10.91.06-16.37.19-1.78.04-3.55.58-5.32.62-1.28.02-2.56-.45-3.85-.63-.55-.08-1.13-.04-1.69.03-1.78.2-3.54.51-5.32.66-3.71.31-7.42.53-11.13.82-2.53.2-5.05.7-7.57.64-6.4-.16-12.79.19-19.18.13-1.64-.01-3.28.62-4.92.61-1.72-.01-3.44-.66-5.16-.63-2.18.04-4.36.49-6.63.77Z"/>
  <path class="cls-1" d="M696.89,23.94c.43.46,1.21,1.3,2.01,2.15-3.05,1.46-5.84,2.86-8.71,4.12-.69.3-1.61.03-2.41.16-1.13.19-2.24-.41-3.38.96-1.3,1.57-3.49.64-4.48-1.37-.6-1.21-1.4-2.32-2.11-3.48-1.53-2.52-1.12-4.96.1-7.51,1.01-2.09,2.92-2.93,4.76-3.81,2.16-1.03,4.42-2.23,6.93-1.71,1.67.35,3.6.72,4.8,1.78,1.51,1.34,2.65,3.28,3.45,5.16.35.82-.54,2.16-.95,3.54Z"/>
</svg>