<?xml version="1.0" encoding="UTF-8"?>
<svg id="Layer_1" xmlns="http://www.w3.org/2000/svg" viewBox="0 0 764.15 121.6">
  <defs>
    <style>
      .cls-1 {
        fill: #fff;
      }
    </style>
  </defs>
  <path class="cls-1" d="M463.22,63.05c.27-.19.59-.35.81-.59,2.73-3.06,5.43-6.14,8.17-9.19,1.34-1.49,2.68-3,4.16-4.35,1.16-1.06,2.5-1.93,3.81-2.81.69-.47,1.44-.92,2.22-1.17,1.76-.56,3.01.42,3.9,1.74.35.53.16,1.43.23,2.33,4.3.96,7.46-.06,8.26-3.87,1.13-.48,1.98-.34,2.56.93.17.37.73.61,1.16.8,1.22.53,2.46,1,3.46,1.4-.86,2.38-1.6,4.26-2.22,6.18-.31.97.62,2.39-1.06,2.88-.07.02-.1.23-.11.35-.34,3.13-.67,6.27-1.03,9.62,2.47,0,4.26-.53,5.91-1.98,1.62-1.43,3.5-2.56,5.27-3.83.6-.43,1.28-.81,1.78-1.34,2.58-2.78,5.16-5.56,7.62-8.45.54-.63.8-1.67.85-2.54.11-2.13.99-3.82,2.6-5.13,2.52-2.05,6.45-2.07,8.48.23,1.16,1.32,1.78,3.1,2.65,4.68.9,1.62,1.01,3.56,2.59,4.97.79.71.85,2.4.93,3.67.14,2.15.13,4.32,0,6.47-.06,1.03-.56,2.03-.86,3.05.18.12.35.23.53.35,2.44-2.39,4.85-4.82,7.34-7.17,2.99-2.82,6.13-5.48,9.04-8.38,2.11-2.1,5-3.44,6.12-6.55.42-1.18,4.8-2.03,6.05-1.41.81.4,2.33.96,2.29,1.24-.22,1.39-.83,2.73-1.37,4.06-.33.81-.9,1.53-1.18,2.35-.54,1.59-.96,3.22-1.43,4.83-.04.12-.12.24-.13.36-.28,2.9-.71,5.79-.73,8.69-.01,1.13.57,2.37,1.97,3.02,1.72.79,2.84-.21,3.86-1.1,2.6-2.23,5.05-4.63,7.56-6.96,1.48-1.37,2.98-2.7,4.44-4.09.26-.24.48-.73.42-1.05-.27-1.68-.64-3.34-.95-4.88,2.12-.47,3.78-.7,5.34-1.24.76-.27,1.69-1.01,1.9-1.72,1.21-4.08,1.84-8.38,3.41-12.3,1.47-3.68,3.7-7.1,5.94-10.4.83-1.22,2.58-2.01,4.07-2.54,1.57-.56,3.25.28,3.97,1.6.57,1.05.55,2.68.23,3.91-.48,1.88-1.41,3.65-2.21,5.45-1.42,3.22-2.81,6.47-4.37,9.63-.6,1.22-1.66,2.2-2.43,3.34-.23.33-.2.84-.42,1.82,2.34-.37,4.39-.68,6.43-1,.13-.02.26-.03.39-.04,3.75-.28,7.5-.64,11.26-.8,2.15-.09,3.21.96,3.24,2.73-1.69.92-3.38,1.83-5.07,2.74-.21.11-.41.31-.62.34-2.5.29-5.01.54-7.52.81-2.82.31-5.64.64-8.73.99,0,2.76-.18,5.63.07,8.46.15,1.7.91,3.36,1.51,5,.62,1.7,1.85,1.95,3.63,1.13,1.58-.73,3.37-1.05,4.9-1.86,2.06-1.09,4.05-2.36,5.92-3.77,2.44-1.84,4.77-3.84,7.07-5.86.9-.79,1.51-1.9,2.38-2.72,1.87-1.77,4.03-1.8,5.95-.19.8.67,1.14,4.32.5,5.44-.03.04-.17.04-.17.07-.37,2.98-.82,5.96-.99,8.96-.02.36,1.5,1.23,2.18,1.12,1.49-.24,2.94-.87,4.33-1.51.98-.45,1.91-1.08,2.71-1.8,1.16-1.02,2.23-2.16,3.25-3.32.72-.83,1.25-1.83,1.94-2.69,2.46-3.09,5.36-5.86,6.72-9.71.33-.95,3.98-3.08,4.87-2.77,2.17.75,4.19,2.33,3.71,4.05-.31,1.11-.7,2.19-1.06,3.28-.2.6-.42,1.18-.63,1.77.14.11.28.22.42.34.45-.22,1.03-.34,1.32-.69,1.75-2.11,4.14-3.3,6.44-4.64,2.4-1.39,4.81-2.62,7.47-3.54,2.07-.72,3.76-.9,5.67.09,1.44.75,2.05,2.6,1.48,4.15-.62,1.69-1.07,3.46-1.44,5.23-.38,1.83-.29,3.79-.91,5.52-1.06,2.97-1.28,3.23-.87,6.71,1.25-1.15,2.26-2.12,3.32-3.04,1.51-1.32,2.97-2.73,4.6-3.88,2.26-1.6,4.65-3.02,7-4.5.79-.5,1.6-.96,2.41-1.43,1.83-1.06,3.66-2.14,5.51-3.18,1.71-.96,3.47-1.84,5.18-2.8.53-.3.94-.82,1.46-1.15,1.98-1.21,4.2-1.01,6.3-.67.97.16,1.74,1.33,2.7,1.86,2.47,1.36,5.5,2.05,6.65,5.01.46,1.17.44,2.64.27,3.92-.23,1.7-.82,3.35-1.26,5.02.16.11.33.22.49.33,1.62-1.74,3.15-3.59,4.9-5.2,1.59-1.47,3.59-2.52,5.11-4.05,1.86-1.87,4-2.24,6.37-1.89.7.1,1.68.63,1.86,1.19.18.55-.26,1.73-.79,2.03-3.17,1.83-5.8,4.36-8.09,7.05-1.82,2.15-4.23,3.32-6.2,5.14-2.13,1.98-4.4,3.82-6.59,5.74-.24.21-.49.51-.57.82-.81,3.01-1.55,6.01-2.99,8.86-1.53,3.04-2.37,6.43-3.8,9.54-1.02,2.21-2.63,4.14-3.77,6.3-1.08,2.03-1.89,4.21-2.81,6.32-.08.17-.02.44-.13.55-2.29,2.4-4.51,4.88-6.93,7.15-3.24,3.04-7.48,4.43-11.41,6.26-1.18.55-2.84.09-4.38.09-2.34-4.18-.97-8.31.63-12.23,1.29-3.15,3.23-6.04,4.98-8.99.8-1.36,1.78-2.61,2.77-3.86,2.19-2.77,4.2-5.71,6.69-8.18,3.81-3.78,8.05-7.14,11.94-10.85,1.86-1.77,2.83-4.15,3.23-6.34-1.83.99-3.64,2-5.49,2.96-2.03,1.05-4,2.42-6.17,2.94-2.14.51-4.49.17-6.74.13-.54,0-1.08-.29-1.55-.42-2.32-3.74-2.65-7.72-.97-11.91-.17-.05-.34-.09-.51-.14-.42.45-.81.94-1.27,1.34-.61.52-1.27.98-1.94,1.42-.2.13-.55.06-.72.21-1.77,1.55-3.58,3.06-5.27,4.7-1.49,1.45-3.04,2.74-5.07,3.35-.26.08-.54.26-.72.46-.73.81-1.69.85-2.76.8-.97-.04-2.02.39-2.94.83-2.93,1.38-4.91.62-6.28-2.32-1.26-2.69.21-4.76.44-6.99.31-3.01,1.83-5.91,2.89-8.83.28-.76.82-1.41,1.23-2.12-.24-.21-.47-.42-.71-.63-2.15,1.71-4.27,3.47-6.48,5.11-1.67,1.24-3.53,2.24-5.18,3.51-.87.67-1.8,1.55-2.15,2.54-.56,1.55-.66,3.27-.92,4.76-3.05,1.53-6.04,3.02-9.21,4.61-.89-.83-1.26-1.78-.43-3.36.73-1.4.85-3.12,1.34-5.13-.86.19-1.44.16-1.81.42-3.4,2.41-7.09,4.21-11.01,5.62-1.28.46-2.31,1.56-3.55,2.18-1.11.55-2.33.89-3.53,1.23-.22.06-.62-.29-.87-.53-.99-.95-1.98-1.91-2.92-2.91-.27-.28-.53-.74-.51-1.09.18-2.67.43-5.33.65-7.99.03-.32,0-.64,0-.99-2.71,1.46-5.34,2.95-8.03,4.3-3.95,1.97-7.99,3.75-11.9,5.8-1.69.89-3.08,2.47-5.23,1.86-1.15-.33-2.46-.66-3.29-1.43-1.15-1.07-2.36-2.44-2.74-3.88-.64-2.43-.68-5.03-.9-7.56-.1-1.15-.02-2.31-.02-3.61-1.99,1.56-4.06,2.73-5.5,4.42-2.03,2.38-4.79,3.64-7.1,5.54-2.87,2.37-6.41,3.54-9.46,5.5-2.9,1.86-5.76.6-8.6.98-.43.06-.98-.89-1.5-1.35-2.86-2.55-3.59-5.57-2.13-9.16.23-.57,0-1.31.14-1.94.12-.59.44-1.15.83-2.11-.71.32-1.4.46-1.84.86-1.43,1.28-2.63,2.86-4.18,3.96-1.93,1.37-4.32,2.13-6.13,3.62-2.87,2.36-6.63,2.87-9.5,5.03-1.79,1.34-3.67,1.18-5.6,1.13-.65-.02-1.29-.46-2.05-.75-.67,1.03-4.14,1.12-5.38.16-.94-.72-2.28-.92-3.45-1.34-1.69-.61-2.13-2.13-2.32-3.6-.21-1.62.66-2.66,1.8-4.03,2.48-2.97,3.94-.89,6.05.04,1.8.79,3.91.87,6,1.28.61-4.29.29-8.08-1.41-11.67-.13-.27-1.17-.46-1.38-.26-1.57,1.49-2.99,3.12-4.54,4.63-.95.93-2.01,1.75-3.06,2.57-.65.51-1.35.94-2.03,1.41-.75.51-1,1.82-2.33,1.44-.08-.02-.28.23-.36.38-1.2,2.16-3.73,2.38-5.37,3.67-2.74,2.16-6.17,2.68-8.9,4.69-1.12.82-2.72,1.23-4.14,1.35-3.01.25-4.62-1.23-4.27-4.28.38-3.29,1.22-6.56,2.13-9.76.78-2.73,1.94-5.36,3.17-8.68-1.99.46-3.47,1.08-4.95,1.06-1.5-.02-2.98-.67-4.59-1.07-1.79,1.71-3.87,3.63-5.87,5.64-.48.48-.64,1.27-.99,1.89-.2.36-.45.7-.74.98-2.51,2.42-5.05,4.81-7.56,7.23-1.25,1.2-2.45,2.46-3.71,3.65-2.44,2.32-5.55,3.5-8.49,4.96-.95.48-1.87,1.03-2.86,1.42-1.33.52-2.02-.5-2.08-1.44-.21-3.06,0-6.05,1.24-9.01.98-2.34,1.22-4.98,1.87-7.46.46-1.78,1.11-3.51,1.58-5.29.69-2.6,1.31-5.22,2-8.03-4.03.19-5.88,4.87-9.96,4.24-.78-2.42-.59-3.94,2.61-5.08.96-.34,1.91-.91,2.64-1.61,2.31-2.18,5.35-2.94,8.13-4.11,1.21-.51,3.14-.06,4.44.57,1.49.73,2.01,4.36,1.31,5.84-.3.64-.53,1.35-.6,2.05-.31,3.02-.44,6.07-.87,9.08-.16,1.1-.95,2.11-1.46,3.16l.76.44ZM701.5,85.6c-1.52,1.26-2.54,2.07-3.51,2.92-.64.57-1.72,1.2-1.73,1.82-.03,1.92-1.71,2.48-2.56,3.69-.25.36-.87.48-1.09.84-1.74,2.78-3.51,5.54-5.51,8.14-.75.98-1.42,2.05-1.97,3.16-.57,1.16-.79,2.52-1.46,3.61-1.12,1.83-1.81,3.63-1,6.04,1.16-.82,2.36-1.34,3.09-2.24,2.1-2.61,4.03-5.38,6-8.09.9-1.25,1.94-2.44,2.61-3.8,1.77-3.62,3.39-7.32,5.04-11,.69-1.56,1.3-3.15,2.09-5.09ZM693.74,66.81c0,3.15.8,4.05,2.93,3.56,1.09-.25,2.28-.77,3.07-1.54,2.36-2.27,4.27-4.8,5.15-8.13.44-1.65.03-1.93-1.3-2.07-.25-.03-.53-.07-.72-.21-1.48-1.08-2.42-1.55-4.4.01-3.11,2.45-3.89,5.62-4.73,8.38Z"/>
  <path class="cls-1" d="M210.96,56.69c2.07,2.75,4.5,5.61,6.48,8.76.95,1.51,2.07,1.17,3.07.95,1.27-.28,2.42-1.11,3.65-1.65,1.5-.65,3.04-1.21,4.53-1.87.44-.19.92-.54,1.13-.94,1.08-2.12,3.45-2.14,5.11-3.29.92-.64,1.91-1.38,2.44-2.31,1.49-2.62,2.88-5.3,4.06-8.07.94-2.18,2.59-3.25,4.63-4.17,2.97-1.33,5.31-.51,7.57,1.51,1.72,1.54,3.62,2.87,5.34,4.41,2.16,1.94,3.72,4.25,3.91,7.27.04.72.01,1.44,0,2.16-.02,3.5-1.23,6.26-3.87,8.82-1.38,1.33-2.62,2.72-4.33,3.57-2.13,1.05-4.36,1.88-6.48,2.96-.85.43-1.39,1.49-2.25,1.88-3.24,1.46-6.56,2.61-10.16.5-.26-1.47-.63-3.04-.79-4.63-.1-.96.34-1.57,1.29-2.28,2.01-1.49,3.83-1.58,5.94-.54,2.15,1.07,5.77.4,7.19-1.5.96-1.28,1.98-2.71,2.31-4.21.28-1.3-.12-2.93-.71-4.18-.81-1.7-2.05-3.21-3.2-4.74-.32-.42-.93-.63-1.16-.25-1,1.02-2,2.05-3.02,3.06-.61.6-1.42,1.08-1.85,1.78-1.73,2.8-4.6,4.05-7.18,5.77-2.91,1.94-6.01,3.42-9.09,4.99-1.93.98-3.82,2.06-5.77,2.98-1.18.55-2.44.98-3.7,1.3-1.43.37-2.92.5-4.35.86-.44.11-.79.61-.98.78-.57-.27-1.13-.73-1.73-.79-2.12-.23-4.17-1.65-4.53-3.8-.52-3.08-2.84-5.18-3.91-7.95-.16-.41-1.22-.92-1.49-.76-.69.41-1.61,1.13-1.67,1.8-.23,2.44-1.66,3.75-3.65,4.75-1.48.74-2.95,1.5-4.61,2.34-.96-.86-1.19-3.49-.46-5.48.81-2.22,1.31-4.56,1.56-7.09-.46.64-.85,1.34-1.39,1.91-2.66,2.81-5.47,5.48-8.01,8.39-1.97,2.26-3.91,4.37-6.92,5.27-.87.26-.84,1.7-2.25,1.87-1.45.17-2.98.36-4.34,1.37-1.21.9-2.87,1.19-4.33,1.76-.83.32-1.66.64-2.48.95-2.4-3.83-.8-7.27.11-10.74.35-1.35.58-2.73,1-4.06.25-.8.83-1.49,1.12-2.28,1.36-3.69,2.62-7.41,4.04-11.07.53-1.37,1.42-2.6,2.13-3.89-2.63-1.41-3.79.83-5.29,1.67-1.83,1.02-3.45,2.51-4.99,3.97-2.1,1.99-4.08,4.13-6.05,6.26-.78.84-1.51,1.78-2.04,2.79-.63,1.2-1.4,2.52-1.44,3.81-.11,3.69-2.17,5.43-5.34,6.69-1.9.75-3.53,2.22-5.36,3.41-2.83-2.34.1-5.09-.52-7.94-1.07.34-2.44.34-2.98,1.02-1.42,1.77-3.46,2.05-5.31,2.72-2.49.9-5.05,1.62-7.63,2.2-.54.12-1.6-.56-1.89-1.13-1.52-3.07-1.55-3.15-4.23-1.81-1.96.98-3.92,1.98-5.86,3.02-.42.23-.72.7-1.13.94-.66.39-1.36.73-2.08,1-.78.3-1.62.44-2.4.74-1.33.52-4.3-1.14-4.85-2.45-1.48-3.56-.85-7.25-.62-10.84.12-1.96,1.55-3.83,2.35-5.76.15-.37.13-.81-.22-1.5-.84.83-1.68,1.66-2.52,2.5-1.1,1.08-2.23,2.14-3.29,3.25-2.59,2.7-4.94,5.69-7.81,8.03-1.43,1.16-3.17,2.84-5.76,1.94-.8-.28-2.17.99-3.24,1.62-1.88,1.09-3.32.25-3.63-1.8-.39-2.52.85-4.56,1.52-6.77.66-2.19,1.29-4.41,2.08-6.55.73-1.98,1.74-3.86,2.47-5.85.74-2.02,1.28-4.12,1.93-6.22-2.07-.55-3.49.29-4.78,1.39-2.14,1.82-4.02,4.05-6.4,5.41-1.58.9-2.59,2.2-3.89,3.29-.59.49-.92,1.28-1.78,1.72-.49,1.31-1.01,2.61-1.47,3.94-.26.73-.5,1.49-.62,2.25-.31,2.04-.35,4.15-.93,6.1-.25.84-1.53,1.43-2.42,2.01-1.36.88-2.75,1.72-4.19,2.44-1.01.51-2.13.8-3.3,1.22-.57-3.63.16-6.91,1.2-10.15.04-.12.1-.24.12-.37.69-3.27,1.29-6.57,2.09-9.81.9-3.64,2.01-7.22,2.95-10.84.18-.7.03-1.48.03-2.75-1.45,2.68-2.58,4.93-3.88,7.07-.66,1.08-1.71,1.9-2.49,2.92-.72.94-2.12,1.51-1.82,3.07.02.08-.13.21-.21.3-2.26,2.35-4.57,4.65-6.76,7.06-.7.77-1.02,1.88-1.67,2.7-.53.67-1.31,1.14-2.22,1.89-.23,2.27-3.53,4.54-7,4.39-.4-2.16-.47-3.97,1.79-5.53,2.21-1.53,4.03-3.65,5.86-5.66,1.01-1.11,1.42-2.92,2.57-3.73,2.75-1.94,3.7-5.09,5.69-7.53,2.18-2.66,4.1-5.53,6.01-8.39,1-1.49,1.72-3.16,2.59-4.74,1.08-1.96,2.19-3.9,3.26-5.87,1.19-2.19,2.43-4.36,3.5-6.61,1.41-2.98,5.37-3.87,7.84-1.61.4.37.82,1.09.74,1.55-.3,1.59-.86,3.13-1.27,4.7-.37,1.42-.62,2.89-1.05,4.29-.54,1.78-1.25,3.5-1.8,5.28-.38,1.23-.86,2.5-.85,3.75.02,2.86-.87,5.48-1.63,8.15-.13.46.03,1.01.08,1.78.48-.41.83-.62,1.07-.93,2-2.58,4.84-4.12,7.5-5.79,2.73-1.71,5.64-3.28,8.67-4.27,2.41-.79,5.07-.28,7.17,1.54.19.16.2.59.21.9.03.72.11,1.46,0,2.16-.37,2.26-.75,4.52-1.28,6.75-.34,1.45-1.06,2.81-1.39,4.26-.45,1.99-.68,4.04-1,6.06.16.09.32.18.48.27,1.59-1.58,3.12-3.22,4.79-4.71,2.78-2.48,5.82-4.7,8.43-7.35,2.1-2.13,4.41-3.89,6.94-5.4,2.23-1.33,4.58-2.45,6.81-3.77,1.84-1.09,3.69-2.06,5.91-1.62.78.16,1.67.41,2.2.93.3.29-.05,1.23-.12,2.01,1.29-.21,3.01-.09,4.25-.81,1.24-.72,1.89-.24,2.87.16,2.84,1.16,2.81,1.11,2.02,4.11-.19.74.05,1.58-.07,2.34-.18,1.13.78,2.65-1.03,3.28-.07.02-.1.23-.1.36-.32,4.57-.64,9.13-.95,13.7,1.05-.24,1.78-.32,2.43-.59.72-.29,1.38-.74,2.04-1.16,1.75-1.13,3.65-2.11,5.17-3.5.7-.64.64-2.1.99-3.16.82-2.57,1.69-5.13,2.5-7.71.62-1.95.8-4.17,1.85-5.83,1.57-2.47,5.58-3.73,8.39-1.21.66.59.98,4.11.62,5.11-.38,1.05-.6,2.17-.9,3.26l.54.25c1.58-1.44,3.21-2.83,4.73-4.32,2.55-2.49,5.58-4.49,8.83-5.47,3.24-.97,6.96-2.26,10.24.48.29.24.84.18,1.75.34-.38,2.41-.85,4.68-1.07,6.97-.17,1.75,0,3.53-.09,5.29-.04.77.6,1.95-.92,2.13-.09.01-.19.33-.2.51-.26,2.89-.51,5.78-.33,8.98,1.78-2.09,3.59-4.16,5.32-6.29,2.16-2.66,4.32-5.34,6.36-8.09,1.1-1.48,2.01-3.11,2.92-4.72,1.4-2.47,2.83-4.94,4.04-7.51.66-1.39.84-3,1.32-4.48.53-1.63,1.19-3.21,1.71-4.83.41-1.31.65-2.66,1.02-3.98.84-2.95,1.62-5.93,2.62-8.83.45-1.29,1.41-2.39,2.06-3.62.72-1.39,1.39-2.81,2.01-4.25.79-1.84,2.43-2.8,4.12-3.09,1.06-.18,2.6.63,3.41,1.48.43.45,1.7,1.3.56,2.97-1.51,2.22-2.04,5.11-3.02,7.7-.78,2.08-1.16,4.49-2.49,6.13-2,2.47-2.41,5.38-3.38,8.14-.68,1.94-.81,4.1-1.67,5.93-.61,1.28-1.44,2.34-.82,4.13.57-.19,1.22-.28,1.74-.6,3.54-2.19,7.33-3.14,11.5-2.67,3.23.36,5.39,2.94,4.48,5.97-.43,1.42-1.6,2.73-2.71,3.8-2.23,2.17-4.65,4.14-6.71,5.95ZM118.46,47.18c-1.9,2.75-3.69,5.23-5.35,7.8-.67,1.04-.77,2.5-1.57,3.38-1.63,1.8-1.58,4.01-1.73,6.08-.11,1.39.65,2.85,1.04,4.32,3.95.26,13.45-14.51,12.31-19.67-.99.18-1.98.36-3.22.59-.24-.4-.67-1.13-1.49-2.5ZM201.52,53.32c3.65,1.06,8.55-1.46,9.34-4.77.1-.42-1.33-1.64-1.39-1.6-1.71,1.26-4.86.6-5.15,3.76-.01.15-.23.42-.31.41-1.87-.35-1.49,1.54-2.5,2.2Z"/>
  <path class="cls-1" d="M378.52,77.94c.39-1.7.73-3.41,1.19-5.09.38-1.37.89-2.7,1.37-4.04.79-2.21,1.62-4.41,2.39-6.63.69-2.01,1.34-4.03,1.98-6.05.25-.79.4-1.61.59-2.41-.78.2-1.62.29-2.34.63-1.47.69-3.15.47-4.6,1.73-.85.74-2.88.14-4.67.14,0,1.5.05,2.85-.01,4.19-.14,2.88-1.13,5.32-3.47,7.19-1.48,1.18-2.64,2.8-4.21,3.8-1.75,1.11-3.82,1.69-5.73,2.57-1.52.7-3.33.91-4.36,2.51-.14.22-.71.21-1.09.22-.85.03-1.74-.16-2.54.04-2.21.55-3.79-.99-5.63-1.58-4.43-1.42-5.44-4.9-5.14-9.07.03-.45,0-.9,0-1.72-.8.25-1.59.24-1.96.64-2.66,2.86-6.23,4-9.67,5.47-1.32.56-2.42,1.61-3.71,2.26-1.22.61-2.56.99-4.46,1.7v-4.39c3.36-1.17,6.47-2,8.98-4.44,1.74-1.68,4.12-2.67,6.07-4.16,2.14-1.64,4.15-3.46,6.14-5.29,1.32-1.21,2.53-2.54,3.73-3.87,2.28-2.52,5.22-4.21,7.78-6.36,1.17-.99,2.14-1.03,3.3-.99.52.02,1.02.58,1.54.88.59.33,1.15.79,1.79.94,1.58.38,3.21.57,4.8.92.5.11.92.52,1.42.69,2.77.94,5.49,2.28,8.34,2.64,2.06.26,4.37-.56,6.42-1.31,2.7-.99,5.29-2.31,7.83-3.66.93-.49,1.59-1.21,2.84-1.19,4.46.08,6.01,2.42,4.29,6.63-.22.55-.03,1.27-.03,2.2.6-.23,1.13-.29,1.45-.59,2.69-2.52,5.99-4.02,9.31-5.38,4-1.63,5.75-1.53,8.21,1.68-.62.73-1.2,1.43-1.79,2.12l.26.18c-2.14.95-4.27,1.92-6.42,2.85-.54.23-1.12.5-1.69.52-1.29.05-2.33.09-3.41,1.27-1.45,1.58-3.69,2.41-5.25,3.92-1.91,1.84-4.66,2.94-5.2,6.18-.16.98.06,2.82-1.62,3.36-.08.03-.16.22-.15.33.23,3.73-3.13,3.42-5.16,4.61-.46.27-1.03.49-1.33.9-1.48,1.98-3.69,2.2-5.76,2.74-.19-.15-.39-.3-.58-.45ZM355.07,54.18c-.25.9-.24,1.66-.61,2.05-2.15,2.23-2.68,5.02-2.78,7.91-.12,3.41,5.09,6.29,8.12,4.59,3.27-1.84,4.1-5.95,2.45-9.38-1-2.08-3.07-2.62-4.41-4.15-.56-.65-1.82-.69-2.78-1.02Z"/>
  <path class="cls-1" d="M39.17,17.97c-6.08-.32-11.85-.8-17.63-.86-2.12-.02-4.27,1.37-6.39,1.33-3.21-.05-4.15,3.04-6.61,4.06-1.58.65-2.66,4.07-1.17,5.82-1,.74-2.02,1.47-3.02,2.24-.8.62-2.47-.19-2.55-1.51-.16-2.48-.74-5.19.91-7.32,1.21-1.57,2.91-2.82,4.55-3.98,2-1.42,4.1-2.73,6.29-3.83,1.72-.86,3.62-1.42,5.48-1.97,7.51-2.24,15.24-1.39,22.9-1.61.5-.01.97-.52,1.48-.72.5-.19,1.07-.47,1.55-.4,4.47.67,8.49-1.12,12.51-2.51,2.27-.79,4.1-2.79,6.34-3.71,2.87-1.18,5.39-3.49,8.91-2.9,2.18.37,3.21,1.14,3.13,2.71-1.66.88-3.18,1.76-4.75,2.51-1.71.82-3.49,1.51-5.23,2.29-1.14.51-2.6.8-3.29,1.68-1.32,1.7-3.3,1.78-4.94,2.63-1.69.88-3.75,1.28-5.13,2.48-1.63,1.42-3.56,1.22-5.75,2.32-.41,1.73-.37,4.37-1.62,6.09-1.11,1.54-.62,3.21-1.55,4.67-.78,1.22-.74,2.96-1.02,4.48-.3,1.65-.51,3.31-.84,4.95-.16.82-.27,1.9-.82,2.35-1.5,1.23-.48,3.09-1.65,4.66-1.59,2.13-1.68,5.35-2.64,8.01-.56,1.55-1.58,2.94-2.39,4.41-.32.57-.7,1.12-.96,1.72-1.12,2.64-2.13,5.33-3.34,7.93-.42.91-1.2,1.71-1.95,2.41-2.14,1.99-2.98,5.18-6.1,6.3-2.14.77-4.14,1.93-6.21,2.9-2.07.96-3.98,2.07-6.41,2.36-3.15.38-5.42-.79-7.46-2.79-.73-.71-1.41-1.79-1.52-2.76-.35-3.09-.74-6.26,1.2-9.08,1.67-2.42,6.47-3.5,8.29-.86.32.46.65,1.47.49,1.59-1.32,1.01-.48,1.84.11,2.67.7.99,1.38,2,2.19,2.89,1.07,1.18,2.7,1.09,3.53-.18,2.18-3.33,4.55-6.58,6.38-10.1,2.09-4,4.52-7.86,5.66-12.35.64-2.5,2.08-4.79,3-7.23.79-2.09,1.3-4.29,2.01-6.41.47-1.4.53-2.89,1.66-4.14.71-.79.72-2.22,1.04-3.36.83-2.93,1.66-5.87,2.52-8.79.1-.32.41-.58.79-1.11Z"/>
  <path class="cls-1" d="M331.41,54.64c-2.71,2.1-5.36,4.15-8.51,3.88-3.17-.28-6.21,2.16-9.58.18-.83,2.36-1.59,4.81-2.55,7.17-.52,1.28-1.46,2.37-2.07,3.62-1.06,2.18-1.97,4.43-3.02,6.61-.61,1.25-1.15,2.69-2.15,3.55-1.34,1.15-1.43,2.75-2.17,4.09-.06.11-.07.3-.16.34-2.63,1.17-2.85,4.46-5.14,5.87-2.09,1.29-4.23,2.49-6.41,3.61-1.27.66-2.73.97-3.97,1.67-2.76,1.55-5.68.35-8.5.62-.38.04-1.21-.78-1.21-1.2-.02-1.53-.78-3.35.88-4.46,1.51-1.02,2.88-2.37,5.15-1.21,2.78,1.43,6.9-.43,8.43-3.2,1.51-2.74,3.41-5.26,4.89-8.02,1.52-2.81,2.76-5.77,4.07-8.69,1.02-2.26,1.97-4.56,2.93-6.85.33-.79.58-1.61.97-2.7h-11.3c0-1.66-.21-3.17.1-4.57.13-.59,1.33-1.29,2.08-1.34,2.67-.19,5.36-.09,8.04-.17,3.25-.1,3.53-.5,4.35-3.53.84-3.12,1.99-6.15,2.95-9.23,1.26-4.03,2.22-8.16,3.77-12.07,1.11-2.81,2.88-5.37,4.48-7.96,1.77-2.87,4.67-4.16,7.72-5.21.61-.21,1.09-.79,1.66-1.15,2.16-1.37,4.42-1.13,6.47.04,1.31.74,2.46,1.89,3.42,3.07.71.88-.53,2.76-1.65,3.2-1.52.6-2.9,1.27-3.48-1.04-1.26.64-2.18-2.11-3.65-.34-.29.36-1.23.18-1.46.21-.75.96-1.41,1.6-1.83,2.38-.85,1.56-1.76,3.13-2.31,4.81-.72,2.19-.72,4.7-1.75,6.7-1.18,2.29-1.48,4.62-1.91,7.05-.54,3.04-1.51,6-2.3,8.99-.06.23-.2.44-.32.65-.88,1.49-.47,2.56,1.24,2.59,1.56.04,3.13-.5,4.7-.53,2.8-.07,5.79-.71,7.87,2.09.19.25.67.29,1.23.51Z"/>
  <path class="cls-1" d="M748.76,59.29c0-2.81-.24-5.51.07-8.15.29-2.55,1.17-5.04,1.74-7.57.33-1.47.62-2.95.85-4.44.32-2.08.51-4.18.86-6.26.49-2.95,2-5.31,4.14-7.4,1.37-1.35,4.35-2.38,6.01-1.62,1.45.67,2.15,3.34,1.44,4.88-1.06,2.32-1.93,4.73-3,7.05-.42.91-1.27,1.63-1.69,2.54-.48,1.04-.65,2.22-1.03,3.31-.72,2.09-1.49,4.16-2.24,6.24-.06.18-.09.38-.11.57-.27,2.24-.57,4.48-.78,6.72-.21,2.3-3.23,4.4-6.26,4.13Z"/>
  <path class="cls-1" d="M235.28,36.7c-1.26-3.79,1.29-6.46,2.24-9.53.28-.92.04-1.99.18-2.97.22-1.52.12-3.34.95-4.45,1.22-1.64,3.07-2.87,4.8-4.05.41-.28,1.63.11,2.1.57.93.91,3.19,1.52,1.29,3.54-.17.18-.17.78-.01.94,1.05.99.28,1.81.07,2.87-.5,2.46-1.96,4.22-3.4,6.09-.64.84-.91,2.03-1.67,2.69-1.1.95-2.51,1.53-3.75,2.32-.95.61-1.85,1.31-2.8,1.99Z"/>
  <path class="cls-1" d="M623.18,44.26c-.53-3.58,1.3-5.97,3.21-8.13,1.15-1.3,2.44-2.73,4.45-3.02,2.09-.3,3.67.28,4.75,2.12-2.39,5.37-7.46,6.93-12.41,9.03Z"/>
  <path class="cls-1" d="M508.58,31.32c-2.61,3.32-6.78,4.26-10.53,5.97-1.62-1.67-1.31-6.01.89-7.59,1.51-1.08,3.28-2.28,5.3-1.62,1.73.57,3.82.86,4.34,3.24Z"/>
  <path class="cls-1" d="M561.16,35.48c-.18-.14-.67-.52-1.15-.91-.82-.65-.84-4.02.17-4.79,2.15-1.65,4.27-3.45,7.27-3.33,2.42.1,3.82,1.59,3.68,3.74-3.39,1.8-6.65,3.53-9.97,5.29Z"/>
  <path class="cls-1" d="M751.09,72.72c-2.07,1.22-4.25,2.55-6.47,3.79-.4.22-1.36.25-1.43.1-.43-1-1.19-2.26-.89-3.1.87-2.42,1.92-4.7,4.78-5.82,1.77-.69,2.63.33,3.56.96.6.41.56,1.83.69,2.82.06.45-.17.93-.24,1.26Z"/>
</svg>